<?xml version="1.0" encoding="UTF-8" standalone="no"?>
<svg
   xmlns:dc="http://purl.org/dc/elements/1.1/"
   xmlns:cc="http://creativecommons.org/ns#"
   xmlns:rdf="http://www.w3.org/1999/02/22-rdf-syntax-ns#"
   xmlns:svg="http://www.w3.org/2000/svg"
   xmlns="http://www.w3.org/2000/svg"
   xmlns:sodipodi="http://sodipodi.sourceforge.net/DTD/sodipodi-0.dtd"
   xmlns:inkscape="http://www.inkscape.org/namespaces/inkscape"
   width="360mm"
   height="200mm"
   viewBox="0 0 360 200"
   version="1.1"
   id="svg8"
   inkscape:version="1.0.1 (3bc2e813f5, 2020-09-07)"
   sodipodi:docname="Simple_theory_illustration.svg"
   inkscape:export-filename="D:\Dropbox\PhD\A Salty Situation\A_perfect_storm_replication\Slides\Figures\Simple_theory_illustration.png"
   inkscape:export-xdpi="1200"
   inkscape:export-ydpi="1200">
  <defs
     id="defs2">
    <marker
       style="overflow:visible"
       id="Arrow1Lend"
       refX="0"
       refY="0"
       orient="auto"
       inkscape:stockid="Arrow1Lend"
       inkscape:isstock="true">
      <path
         transform="matrix(-0.8,0,0,-0.8,-10,0)"
         style="fill:#000000;fill-opacity:1;fill-rule:evenodd;stroke:#000000;stroke-width:1pt;stroke-opacity:1"
         d="M 0,0 5,-5 -12.5,0 5,5 Z"
         id="path1094" />
    </marker>
    <rect
       x="142.4337"
       y="364.2175"
       width="265.6701"
       height="47.477169"
       id="rect992" />
    <rect
       x="142.4337"
       y="364.2175"
       width="265.6701"
       height="47.477169"
       id="rect992-7" />
    <rect
       x="142.4337"
       y="364.2175"
       width="265.6701"
       height="47.477169"
       id="rect1005" />
    <rect
       x="142.4337"
       y="364.2175"
       width="341.43155"
       height="83.842659"
       id="rect992-7-2" />
    <rect
       x="142.4337"
       y="364.2175"
       width="265.6701"
       height="47.477169"
       id="rect1034" />
    <rect
       x="142.4337"
       y="364.2175"
       width="265.6701"
       height="47.477169"
       id="rect992-7-20" />
    <rect
       x="142.4337"
       y="364.2175"
       width="265.6701"
       height="47.477169"
       id="rect1064" />
    <marker
       style="overflow:visible"
       id="Arrow1Lend-8"
       refX="0"
       refY="0"
       orient="auto"
       inkscape:stockid="Arrow1Lend"
       inkscape:isstock="true">
      <path
         transform="matrix(-0.8,0,0,-0.8,-10,0)"
         style="fill:#000000;fill-opacity:1;fill-rule:evenodd;stroke:#000000;stroke-width:1pt;stroke-opacity:1"
         d="M 0,0 5,-5 -12.5,0 5,5 Z"
         id="path1094-6" />
    </marker>
    <marker
       style="overflow:visible"
       id="Arrow1Lend-8-6"
       refX="0"
       refY="0"
       orient="auto"
       inkscape:stockid="Arrow1Lend"
       inkscape:isstock="true">
      <path
         transform="matrix(-0.8,0,0,-0.8,-10,0)"
         style="fill:#000000;fill-opacity:1;fill-rule:evenodd;stroke:#000000;stroke-width:1pt;stroke-opacity:1"
         d="M 0,0 5,-5 -12.5,0 5,5 Z"
         id="path1094-6-2" />
    </marker>
    <marker
       style="overflow:visible"
       id="Arrow1Lend-8-9"
       refX="0"
       refY="0"
       orient="auto"
       inkscape:stockid="Arrow1Lend"
       inkscape:isstock="true">
      <path
         transform="matrix(-0.8,0,0,-0.8,-10,0)"
         style="fill:#000000;fill-opacity:1;fill-rule:evenodd;stroke:#000000;stroke-width:1pt;stroke-opacity:1"
         d="M 0,0 5,-5 -12.5,0 5,5 Z"
         id="path1094-6-5" />
    </marker>
    <marker
       style="overflow:visible"
       id="Arrow1Lend-8-6-6"
       refX="0"
       refY="0"
       orient="auto"
       inkscape:stockid="Arrow1Lend"
       inkscape:isstock="true">
      <path
         transform="matrix(-0.8,0,0,-0.8,-10,0)"
         style="fill:#000000;fill-opacity:1;fill-rule:evenodd;stroke:#000000;stroke-width:1pt;stroke-opacity:1"
         d="M 0,0 5,-5 -12.5,0 5,5 Z"
         id="path1094-6-2-4" />
    </marker>
    <marker
       style="overflow:visible"
       id="Arrow1Lend-8-6-6-3"
       refX="0"
       refY="0"
       orient="auto"
       inkscape:stockid="Arrow1Lend"
       inkscape:isstock="true">
      <path
         transform="matrix(-0.8,0,0,-0.8,-10,0)"
         style="fill:#000000;fill-opacity:1;fill-rule:evenodd;stroke:#000000;stroke-width:1pt;stroke-opacity:1"
         d="M 0,0 5,-5 -12.5,0 5,5 Z"
         id="path1094-6-2-4-9" />
    </marker>
    <marker
       style="overflow:visible"
       id="Arrow1Lend-6"
       refX="0"
       refY="0"
       orient="auto"
       inkscape:stockid="Arrow1Lend"
       inkscape:isstock="true">
      <path
         transform="matrix(-0.8,0,0,-0.8,-10,0)"
         style="fill:#000000;fill-opacity:1;fill-rule:evenodd;stroke:#000000;stroke-width:1pt;stroke-opacity:1"
         d="M 0,0 5,-5 -12.5,0 5,5 Z"
         id="path1094-7" />
    </marker>
    <rect
       x="142.4337"
       y="364.2175"
       width="265.6701"
       height="47.477169"
       id="rect992-7-7" />
    <rect
       x="142.4337"
       y="364.2175"
       width="265.6701"
       height="47.477169"
       id="rect2029" />
  </defs>
  <sodipodi:namedview
     id="base"
     pagecolor="#ffffff"
     bordercolor="#666666"
     borderopacity="1.0"
     inkscape:pageopacity="0.0"
     inkscape:pageshadow="2"
     inkscape:zoom="0.7"
     inkscape:cx="542.73779"
     inkscape:cy="473.59781"
     inkscape:document-units="mm"
     inkscape:current-layer="g935"
     inkscape:document-rotation="0"
     showgrid="false"
     inkscape:window-width="1920"
     inkscape:window-height="1017"
     inkscape:window-x="-8"
     inkscape:window-y="-8"
     inkscape:window-maximized="1" />
  <metadata
     id="metadata5">
    <rdf:RDF>
      <cc:Work
         rdf:about="">
        <dc:format>image/svg+xml</dc:format>
        <dc:type
           rdf:resource="http://purl.org/dc/dcmitype/StillImage" />
        <dc:title></dc:title>
      </cc:Work>
    </rdf:RDF>
  </metadata>
  <g
     inkscape:label="Lag 1"
     inkscape:groupmode="layer"
     id="layer1"
     transform="translate(160.44337,-15.204325)">
    <g
       transform="matrix(0.26458333,0,0,0.26458333,-140.58435,34.863457)"
       id="g935">
      <g
         id="g879"
         transform="translate(1.0101516,-67.918779)">
        <g
           id="g877">
          <g
             id="g875">
            <path
               d="m 695.275,334.962 c -4.95,0 -9.075,-4.125 -9.075,-9.074 0,-4.95 4.125,-9.076 9.075,-9.076 4.95,0 9.075,4.126 9.075,9.076 v 0 c 0,4.949 -4.125,9.074 -9.075,9.074 0,0 0,0 0,0 z m 0,-30.524 c -7.012,0 -13.613,3.506 -17.531,9.281 -3.919,5.775 -4.744,13.2 -2.269,19.8 l 9.694,21.244 8.25,17.531 c 0.618,1.031 1.856,1.443 2.681,0.825 0.413,-0.206 0.619,-0.413 0.825,-0.825 l 8.25,-17.531 9.694,-21.244 c 2.475,-6.6 1.65,-14.025 -2.269,-19.8 -3.712,-5.775 -10.313,-9.281 -17.325,-9.281 z"
               fill="#2c5c34"
               id="path847" />
            <path
               d="m 590.088,417.462 c -6.188,0 -11.344,-5.156 -11.344,-11.343 0,-6.188 5.156,-11.344 11.344,-11.344 6.187,0 11.343,5.156 11.343,11.344 0,0 0,0 0,0 0,6.187 -5.156,11.343 -11.343,11.343 0,0 0,0 0,0 z m 0,-37.743 c -8.663,0 -16.913,4.331 -21.863,11.55 -4.95,7.218 -5.981,16.5 -2.681,24.543 l 11.962,26.401 10.313,21.656 c 0.619,1.237 2.269,1.65 3.506,1.031 0.412,-0.206 0.825,-0.619 1.031,-1.031 l 10.313,-21.656 11.962,-26.401 c 3.094,-8.043 2.063,-17.325 -2.681,-24.543 -4.95,-7.219 -13.2,-11.55 -21.862,-11.55 z"
               fill="#2c5c34"
               id="path849" />
            <path
               d="M 618.963,465.312 H 613.6 c -2.475,0 -4.744,0 -7.012,0 v -12.374 c 2.062,0 4.537,0 7.012,0 h 5.363 z"
               fill="#2c5c34"
               id="path851" />
            <path
               d="m 627.419,465.312 v -12.374 c 4.537,0 8.456,0 12.169,-0.207 L 640,465.106 c -3.919,0.206 -8.044,0.206 -12.581,0.206 z"
               fill="#2c5c34"
               id="path853" />
            <path
               d="m 648.25,464.694 -0.619,-12.375 c 4.332,-0.207 8.457,-0.413 11.963,-0.825 l 1.237,12.375 c -3.712,0.412 -8.044,0.618 -12.581,0.825 z"
               fill="#2c5c34"
               id="path855" />
            <path
               d="m 669.494,462.838 -1.856,-12.169 c 3.918,-0.619 7.631,-1.238 11.343,-2.269 l 3.3,11.962 c -4.331,1.032 -8.456,1.857 -12.787,2.476 z"
               fill="#2c5c34"
               id="path857" />
            <path
               d="m 690.944,457.269 -4.95,-11.344 c 2.681,-0.825 4.95,-2.681 6.6,-4.95 l 10.931,5.981 c -3.094,4.744 -7.425,8.25 -12.581,10.313 z"
               fill="#2c5c34"
               id="path859" />
            <path
               d="m 692.8,436.85 c -0.412,-2.681 -1.65,-5.363 -3.506,-7.219 l 8.662,-8.662 c 3.919,3.919 6.394,8.869 7.013,14.437 z"
               fill="#2c5c34"
               id="path861" />
            <path
               d="m 684.138,425.919 c -3.3,-1.65 -6.807,-3.094 -10.313,-4.125 l 3.506,-11.756 c 4.331,1.237 8.663,2.887 12.581,4.949 z"
               fill="#2c5c34"
               id="path863" />
            <path
               d="m 665.987,419.731 -3.299,-0.825 c -2.888,-0.825 -5.982,-1.444 -8.869,-2.268 l 3.3,-11.963 c 2.681,0.825 5.569,1.444 8.456,2.269 l 3.3,0.825 z"
               fill="#2c5c34"
               id="path865" />
            <path
               d="m 645.362,413.75 c -4.95,-1.856 -9.487,-4.95 -12.787,-9.075 l 10.106,-7.012 c 1.856,2.268 4.538,3.918 7.219,4.743 z"
               fill="#2c5c34"
               id="path867" />
            <path
               d="m 641.856,393.538 -12.375,-0.826 c 0.413,-5.981 3.713,-11.343 8.457,-14.85 l 7.631,9.694 c -3.713,3.094 -3.713,5.363 -3.713,5.982 z"
               fill="#2c5c34"
               id="path869" />
            <path
               d="m 651.344,384.462 -4.95,-11.343 c 4.125,-1.856 8.456,-3.3 12.787,-4.331 l 2.888,11.962 c -3.713,1.031 -7.219,2.269 -10.725,3.712 z"
               fill="#2c5c34"
               id="path871" />
            <path
               d="m 669.7,379.306 -2.062,-12.168 c 5.362,-0.826 9.899,-1.444 12.787,-1.651 l 1.031,12.375 c -2.062,0.207 -6.6,0.619 -11.756,1.444 z"
               fill="#2c5c34"
               id="path873" />
          </g>
        </g>
      </g>
      <g
         id="g907"
         transform="translate(22,28)">
        <g
           id="g905">
          <g
             id="g903">
            <path
               d="m 282.226,66.7491 c -0.343,-0.7475 -1.101,-1.2163 -1.923,-1.1904 h -0.519 c -2.127,-0.0024 -4.197,0.6947 -5.89,1.9839 -0.38,0.358 -0.841,0.6196 -1.343,0.763 -0.824,0.1831 -1.648,0.5799 -2.503,0.7936 -2.531,1.0346 -5.307,1.3206 -7.996,0.824 -1.008,-0.4941 -2.227,-0.1364 -2.808,0.8241 -0.205,0.4172 -0.691,0.6141 -1.129,0.4578 -0.418,-0.0949 -0.856,0.0064 -1.191,0.2747 -0.512,0.3369 -1.098,0.5463 -1.709,0.6104 -2.116,0.2738 -4.069,1.2776 -5.524,2.8384 -0.244,0.2137 -0.58,0.6105 -0.763,0.5799 -1.312,-0.2747 -1.831,0.8851 -2.716,1.3735 v 0 l -0.672,2.289 -1.465,0.3968 c -0.702,0.4578 0,1.0682 -0.549,1.526 -0.55,0.4579 0,1.1293 0,1.6787 -2.076,-0.2442 -3.052,0.1831 -4.853,2.228 0.353,0.1694 0.738,0.2628 1.129,0.2747 0.214,0 0,0.3357 -0.305,0.2747 0.25,0.734 -0.143,1.5315 -0.877,1.7812 -0.063,0.021 -0.127,0.0378 -0.191,0.05 -0.952,0.2061 -1.772,0.8046 -2.259,1.6482 -0.244,0.4273 -0.854,0.6104 -1.251,0.9156 -0.397,0.3052 -0.183,0.3052 -0.275,0.4273 l 0.733,1.4345 -1.374,2.228 c -0.467,-0.0321 -0.936,-0.0321 -1.404,0 -0.757,0.0482 -1.331,0.7007 -1.283,1.4577 0.004,0.0744 0.015,0.1483 0.032,0.2209 0.049,0.8244 0.757,1.4531 1.582,1.4043 0.001,0 0.003,-3e-4 0.005,-3e-4 0.519,0 1.068,-0.3663 1.557,-0.2747 1.617,0.2136 2.563,1.7092 4.028,2.2586 0,0 0,0 0,0 l -0.458,1.6178 3.053,1.037 c 0.25,0.059 0.512,0.059 0.763,0 1.886,-0.351 3.821,-0.351 5.707,0 0.336,0 0.732,0 0.763,-0.488 -0.702,-0.458 -1.465,-0.915 -2.167,-1.4038 -1.541,-1.0673 -2.689,-2.6114 -3.266,-4.395 -0.79,-1.9695 -0.294,-4.2223 1.252,-5.6769 0.449,-0.5854 0.847,-1.2083 1.19,-1.8618 l -1.19,-0.702 c 0.793,0.0489 1.587,0.0489 2.38,0 0.489,0 1.069,-0.3357 0.885,-1.0377 -0.183,-0.7019 0,-0.6409 0.519,-0.6409 0.916,0 1.099,-0.7325 1.557,-1.2514 0.458,-0.5188 0.274,-1.4344 1.282,-1.6176 0.63,-0.0964 1.157,-0.5295 1.373,-1.1292 0.44,-1.1427 1.471,-1.9518 2.686,-2.106 0.99,0.0321 1.909,-0.5164 2.35,-1.4039 0.305,-0.7631 0.824,-0.9767 1.404,-1.3429 2.518,-1.6338 5.309,-2.8022 8.241,-3.4489 3.998,-0.7935 7.813,-2.167 11.75,-3.0521 1.028,-0.2728 1.972,-0.7972 2.747,-1.526 0.641,-0.4273 1.19,-1.0377 0.885,-1.9228 z"
               fill="#2c5c34"
               transform="matrix(1.00341,0,0,1,113,389)"
               id="path881" />
            <path
               d="m 62.8424,171.283 c 1.6481,-0.611 1.6481,-0.611 2.7163,1.129 l -1.0071,2.381 c 1.6481,0.915 3.2046,0 4.7002,0 -0.3052,2.197 -0.3052,2.197 1.5871,3.51 -0.0754,0.513 -0.1771,1.023 -0.3053,1.526 -0.1635,0.509 -0.357,1.009 -0.5798,1.495 l -3.571,0.305 c 0.2442,0.58 0.5189,1.099 0.7325,1.649 0.5189,0.887 0.2198,2.028 -0.6681,2.546 -0.0699,0.041 -0.1422,0.077 -0.217,0.109 -0.3968,0.244 -0.8241,0.366 -1.1903,0.61 -0.2634,0.226 -0.499,0.482 -0.702,0.763 1.1293,0.245 2.0754,0.367 3.0521,0.641 1.15,0.544 2.4411,0.714 3.693,0.489 -0.2441,1.068 -1.0377,1.281 -1.9838,1.251 -0.7014,-0.17 -1.4424,-0.013 -2.0144,0.427 -1.0148,0.863 -1.8719,1.896 -2.5332,3.052 v 0 c 1.2681,-0.351 2.608,-0.351 3.8761,0 0.4822,-1.208 1.8016,-1.854 3.0521,-1.495 0.6043,0.122 1.2269,0.122 1.8312,0 1.9876,-0.408 4.0148,-0.592 6.0432,-0.55 1.3795,0.094 2.7163,-0.5 3.5709,-1.587 l -1.9533,-0.793 c 0.2808,-0.469 0.6079,-0.909 0.9766,-1.313 0.4273,-0.427 1.0072,-0.702 1.404,-1.159 0.6577,-0.51 0.9055,-1.389 0.6104,-2.167 -0.3446,-0.741 -1.0762,-1.225 -1.8923,-1.252 -0.3433,-0.059 -0.6943,-0.059 -1.0377,0 -0.3968,0 -0.763,0.458 -1.3124,0 0.2692,-0.802 0.145,-1.684 -0.3357,-2.38 -0.1993,-0.392 -0.3629,-0.8 -0.4883,-1.221 -0.4447,-1.33 -1.4,-2.428 -2.6554,-3.052 -0.4999,-0.336 -0.9006,-0.8 -1.1598,-1.343 -0.296,-0.542 -0.5316,-1.115 -0.7019,-1.709 -0.4282,-1.48 -1.73,-2.538 -3.2658,-2.656 -0.3967,0 -0.9156,0.245 -1.1903,-0.335 1.5554,-1.9 2.7829,-4.045 3.632,-6.349 -1.6316,-0.433 -3.3332,-0.537 -5.0054,-0.305 -0.3968,0 -0.8241,0 -1.1598,0 -0.1987,-0.764 0.123,-1.568 0.7935,-1.984 0.5799,-0.458 1.3735,-0.793 1.5566,-1.831 -1.8312,-0.458 -3.5099,0.458 -5.1885,0 -0.3358,0.702 -0.5494,1.251 -0.8241,1.801 -0.2747,0.549 -0.3663,0.854 -0.702,1.037 -0.644,0.252 -0.9623,0.977 -0.7111,1.621 0.0201,0.051 0.0436,0.101 0.0702,0.15 0.246,0.575 0.246,1.225 0,1.8 0,0.428 -0.2137,0.855 -0.3357,1.282 -0.1221,0.428 -0.3053,0.702 -0.5189,1.191 l 1.5871,-0.367 c -0.0305,1.13 -0.1526,2.076 -0.2747,3.083 z"
               fill="#2c5c34"
               transform="matrix(1.00341,0,0,1,113,389)"
               id="path883" />
            <path
               d="m 112.927,51.4276 1.465,-0.8241 0.61,2.2586 c -0.244,0.4883 -1.037,1.1598 -0.824,1.526 0.214,0.3663 1.282,0.641 1.771,1.0072 0.46,0.4038 0.898,0.8317 1.312,1.2819 1.262,1.1174 3.191,1.0002 4.308,-0.2619 0.213,-0.2402 0.386,-0.5121 0.514,-0.8063 0,-0.3968 0.275,-0.7936 0.397,-1.1598 0.855,0 1.557,0.4273 2.045,-0.3968 0,0 0.275,0 0.427,0 v 1.4345 c 1.496,0.6104 2.289,-0.7325 3.449,-1.1598 l 0.214,2.3196 c -1.037,0.0689 -2.062,0.2637 -3.052,0.5799 -1.706,0.9482 -3.635,1.4225 -5.586,1.3734 0,0.7935 0,1.3734 0.763,1.6786 2.13,-0.3485 4.282,-0.5423 6.44,-0.5799 h 1.435 v 0.2747 l -1.374,-0.3662 c -0.305,0.2747 -0.58,0.7325 -0.946,0.7935 -0.755,0.1618 -1.388,0.6712 -1.709,1.3735 h -1.801 c -0.549,0 -1.159,-0.641 -1.709,0.3662 0.244,0.3357 0.427,0.9156 0.824,1.1293 1.48,1.0459 3.301,1.4931 5.097,1.2513 -0.244,0.6105 -0.732,0.9157 -0.58,1.4345 0.702,0.6715 1.526,1.5566 2.778,1.1293 0.525,-0.9138 0.964,-1.8743 1.312,-2.869 0.333,-1.3572 1.371,-2.43 2.716,-2.8079 0.55,-0.3357 0.245,-1.3429 0.397,-1.9228 0.153,-0.5799 0.214,-0.8546 0.427,-0.9156 1.435,-0.4273 1.282,-1.7702 1.588,-2.7469 0.763,-0.4273 1.434,-0.8546 2.136,-1.1598 0.702,-0.3052 1.404,-0.2442 2.075,-0.4883 0.672,-0.2442 1.557,0.1831 2.32,-0.6715 l -7.325,-2.7469 c 0,-1.1292 0,-2.1669 -1.404,-2.3501 -0.641,0 -0.732,1.0378 -1.679,0.641 l 0.153,-2.0144 c -0.519,-0.2747 -1.129,-0.9461 -1.557,-0.8241 -1.19,0.3052 -1.953,-0.7325 -3.052,-0.7325 l -1.404,1.7397 c 0.263,0.7795 0.477,1.5746 0.641,2.3807 0,0.824 0.977,1.4344 0.824,2.4111 -1.617,-0.4273 -2.106,-1.7092 -2.746,-2.869 -0.641,-1.1598 -1.038,-1.8312 -2.198,-1.9228 -1.343,1.2819 -1.343,1.2819 -1.74,2.7469 l -3.632,-1.6786 c 0.611,-1.3124 2.106,-0.2442 2.839,-1.3124 -2.112,-0.521 -4.325,-0.4685 -6.41,0.1526 -0.518,0.1831 -0.549,0.4273 -0.702,0.6409 -1.312,1.4345 -1.312,1.465 -0.183,3.0521 -0.122,0.5188 0.122,0.5188 0.336,0.6104 z m 11.934,10.5297 1.77,-0.2747 c -0.733,0.7935 -1.282,0.3052 -1.831,0.2747 z"
               fill="#2c5c34"
               transform="matrix(1.00341,0,0,1,113,389)"
               id="path885" />
            <path
               d="m 60.2481,185.414 c 0.3785,-0.719 0.6458,-1.49 0.7936,-2.289 0,-1.465 -0.1526,-3.052 -0.2442,-4.395 l 1.7702,-1.801 c -0.192,-1.284 -0.8427,-2.455 -1.8312,-3.296 L 58.6,173.969 c -0.8241,-1.068 -1.7397,0 -2.5637,0 -0.8241,0 -1.404,0.702 -1.5261,1.831 -0.1221,1.129 -0.3052,1.709 -1.526,1.831 -0.5186,0.03 -1.038,0.03 -1.5566,0 -0.9767,0 -1.2513,0.275 -0.9461,1.252 0,0.366 0.2441,0.579 0,0.946 -0.2152,0.373 -0.3794,0.773 -0.4884,1.19 l 2.3806,0.946 c -0.4883,0.977 -0.8545,1.862 -1.3429,2.686 -0.6678,0.777 -1.1946,1.666 -1.5565,2.625 l 2.7774,1.251 c 1.2809,-0.404 2.5179,-0.936 3.693,-1.587 1.3713,-0.672 2.8152,-1.183 4.3034,-1.526 z"
               fill="#2c5c34"
               transform="matrix(1.00341,0,0,1,113,389)"
               id="path887" />
            <path
               d="m 133.956,45.7812 c 0,0.3053 0,0.7631 0,1.0988 1.028,0.7505 2.335,1.0075 3.571,0.702 l 4.212,-0.4273 c 0.335,0 0.732,0 0.763,0.5799 -0.611,0.2441 -1.252,0.5799 -1.893,0.7935 -0.64,0.2137 -1.465,-0.2441 -2.319,0.1832 1.3,0.9055 2.877,1.3267 4.456,1.1903 1.663,-0.2424 3.361,-0.0315 4.914,0.6104 1.136,0.5552 2.479,0.474 3.54,-0.2137 0.297,-0.2014 0.648,-0.3079 1.007,-0.3052 1.395,0.2112 2.773,-0.4715 3.449,-1.7091 0.214,-0.3968 0.885,-0.5494 1.343,-0.7936 0.458,-0.2442 1.129,-0.5494 1.648,-0.8851 0.519,-0.3357 0.305,-1.1293 -0.152,-1.3429 -0.306,-0.156 -0.637,-0.2591 -0.977,-0.3052 -1.503,-0.0861 -2.995,-0.3107 -4.456,-0.6715 -1.272,-0.4419 -2.679,-0.249 -3.785,0.5189 -0.366,0.3052 -1.129,0 -1.77,0.1526 0.034,-0.3043 0.034,-0.6113 0,-0.9156 0,-0.2137 0,-0.5494 -0.275,-0.641 -0.222,-0.1047 -0.479,-0.1047 -0.701,0 -0.458,0.6104 -0.855,1.2819 -1.435,2.228 -0.544,-0.3052 -1.104,-0.5805 -1.679,-0.824 -0.356,-0.2234 -0.769,-0.34 -1.19,-0.3357 -0.799,0.0463 -1.588,-0.1917 -2.228,-0.6715 -0.671,-0.4273 -1.373,-0.763 -2.106,-1.1903 0,1.3429 -1.404,1.5871 -1.862,2.4722 -0.961,-0.434 -2.052,-0.4887 -3.052,-0.1526 0.367,0.4273 0.824,0.6104 0.977,0.8545 z"
               fill="#2c5c34"
               transform="matrix(1.00341,0,0,1,113,389)"
               id="path889" />
            <path
               d="m 145.89,61.591 0.732,1.7397 c 1.667,-0.5454 3.113,-1.6164 4.12,-3.0521 -1.665,-0.1187 -3.12,-1.171 -3.754,-2.7163 h -1.159 -1.221 c -0.55,-2.0144 -1.007,-2.3806 -2.717,-2.1365 -0.576,0.152 -1.13,0.3779 -1.648,0.6715 0.519,1.1293 0.519,1.1293 2.32,1.7092 l -0.916,0.763 c 0.081,0.1752 0.183,0.3394 0.305,0.4883 l 0.641,0.4273 c -0.213,1.2208 -1.129,1.7702 -0.885,2.869 z"
               fill="#2c5c34"
               transform="matrix(1.00341,0,0,1,113,389)"
               id="path891" />
            <path
               d="m 223.199,111.584 c 1.623,0.07 3.137,-0.812 3.876,-2.258 l -1.526,-0.885 c -0.321,-0.153 -0.659,-0.266 -1.007,-0.336 -1.067,-0.235 -2.154,0.296 -2.625,1.282 -0.441,0.637 -0.283,1.512 0.355,1.953 0.271,0.188 0.599,0.274 0.927,0.244 z"
               fill="#2c5c34"
               transform="matrix(1.00341,0,0,1,113,389)"
               id="path893" />
            <path
               d="m 255.643,106.579 c 0.202,0.175 0.465,0.263 0.732,0.244 0.305,0 0.763,-0.183 0.855,-0.397 0.069,-0.322 -0.036,-0.658 -0.275,-0.885 -1.038,-0.763 -2.167,-1.434 -3.266,-2.136 -0.171,-0.034 -0.347,-0.034 -0.519,0 -0.151,0.052 -0.294,0.124 -0.427,0.213 -0.473,0.407 -0.526,1.12 -0.119,1.593 0.13,0.151 0.297,0.265 0.485,0.33 0.913,0.15 1.778,0.505 2.534,1.038 z"
               fill="#2c5c34"
               transform="matrix(1.00341,0,0,1,113,389)"
               id="path895" />
            <path
               d="m 177.418,44.6215 c -1.252,-1.1293 -2.35,-0.5189 -3.388,-0.2747 -0.336,0 -0.885,0.1526 -0.611,0.8851 1.361,0.0714 2.722,-0.1361 3.999,-0.6104 z"
               fill="#2c5c34"
               transform="matrix(1.00341,0,0,1,113,389)"
               id="path897" />
            <path
               d="m 269.133,108.593 c -0.519,0 -1.007,-0.336 -1.526,-0.458 -1.313,-0.244 -2.595,-0.458 -3.907,-0.641 l -3.876,-0.671 -1.923,1.465 1.892,2.808 c 0,0.244 0,0.336 -0.183,0.397 -0.437,0.676 -1.153,1.123 -1.953,1.22 -1.099,0 -0.885,1.282 -1.648,1.496 -0.408,0.123 -0.844,0.123 -1.252,0 -0.457,-0.214 -0.488,-0.702 -0.335,-1.16 0.152,-0.458 0.274,-0.549 0.366,-0.793 -0.641,-0.672 -1.221,-0.977 -2.014,-0.672 -0.425,0.131 -0.843,0.283 -1.252,0.458 -0.877,0.554 -1.82,0.994 -2.808,1.312 -1.137,0.092 -2.281,0.092 -3.418,0 -1.522,-0.16 -2.987,0.627 -3.693,1.984 h -1.801 c -0.793,0 -1.556,-0.152 -2.35,-0.274 0,0 0,-0.275 0,-0.428 l 1.312,-0.641 c -0.027,-0.389 -0.078,-0.776 -0.152,-1.159 -0.183,-0.825 -0.55,-1.099 -1.282,-0.794 -0.59,0.161 -1.14,0.442 -1.618,0.824 -0.312,0.491 -0.548,1.026 -0.702,1.587 -1.928,-0.79 -4.123,-0.573 -5.86,0.58 -1.129,0.671 -2.38,1.16 -3.54,1.74 l -3.968,1.923 -0.946,2.899 c -0.809,0.302 -1.648,0.516 -2.503,0.641 -1.041,0.256 -2.142,0.08 -3.052,-0.488 -0.885,-0.702 -1.648,-1.496 -2.502,-2.32 0.793,-2.075 2.808,-2.136 4.547,-2.625 0,-0.336 0,-0.641 0,-0.824 -0.898,-1.336 -2.388,-2.155 -3.998,-2.197 h -3.907 c 2.503,2.045 0.458,3.998 0.183,5.89 2.259,2.503 2.259,3.327 0,5.86 -1.536,-0.834 -3.231,-1.333 -4.974,-1.465 -1.056,1.024 -2.329,1.796 -3.724,2.259 -1.032,0.482 -1.997,1.098 -2.869,1.831 -0.449,0.341 -0.544,0.978 -0.214,1.434 0.428,0.55 0.977,1.038 1.343,1.618 0.209,0.382 0.284,0.822 0.214,1.251 0,0.458 -0.549,0.611 -1.068,0.58 -0.519,-0.03 -1.221,0 -1.831,0 -0.902,-0.308 -1.833,-0.523 -2.778,-0.641 -1.343,0 -1.77,-1.068 -2.747,-1.404 l -1.526,-0.488 -1.16,1.374 c 0.695,1.507 2.292,2.386 3.938,2.166 l 0.213,1.862 c -0.775,0.659 -1.829,0.888 -2.808,0.611 -1.209,-0.196 -2.34,-0.724 -3.265,-1.526 -0.556,-0.38 -1.194,-0.621 -1.862,-0.702 -0.916,-0.275 -1.679,-0.733 -1.679,-1.771 0,-1.037 -0.824,-2.105 -1.099,-3.052 1.099,-2.502 0.947,-3.052 -1.342,-4.15 0,0 -0.184,0 -0.245,0 -1.282,-0.916 -2.563,-1.832 -3.784,-2.808 -0.546,-0.336 -0.716,-1.051 -0.38,-1.596 0.032,-0.051 0.067,-0.099 0.105,-0.144 0.327,0.076 0.637,0.21 0.916,0.397 0.681,0.812 1.659,1.317 2.716,1.404 0.603,0.126 1.195,0.3 1.77,0.519 1.679,0.518 3.358,1.037 5.067,1.465 1.709,0.427 2.594,0.457 3.845,0.854 2.738,0.814 5.692,0.449 8.149,-1.007 0.967,-0.604 1.841,-1.344 2.595,-2.198 0.501,-0.536 0.611,-1.331 0.274,-1.983 -0.335,-0.702 -0.58,-1.465 -0.824,-2.137 -0.963,-0.679 -1.984,-1.271 -3.052,-1.77 -2.309,-0.941 -4.534,-2.074 -6.653,-3.388 -1.358,-0.829 -2.788,-1.534 -4.273,-2.106 -2.001,-0.524 -4.043,-0.871 -6.104,-1.038 -0.306,0 -0.672,0.184 -1.008,0.275 -0.335,0.092 -0.641,0 -0.671,0 -0.61,-1.312 -2.167,-0.58 -3.052,-1.404 0,0 -0.305,-0.183 -0.397,-0.336 -0.033,-0.14 -0.033,-0.286 0,-0.427 0.58,0 1.221,0.336 1.862,-0.397 -0.714,-0.379 -1.473,-0.666 -2.259,-0.854 l -1.495,0.854 -5.555,-0.488 c -0.329,-0.345 -0.686,-0.662 -1.068,-0.946 -0.681,-0.343 -1.385,-0.638 -2.106,-0.885 4.486,0.274 4.486,0.274 6.104,-1.404 -1.297,-0.879 -2.746,-1.51 -4.273,-1.862 -1.343,-0.488 -1.312,-0.519 -2.136,0.58 -0.183,0.214 -0.275,0.458 -0.458,0.641 -0.183,0.183 -0.763,0 -0.946,-0.427 -0.036,-0.202 -0.036,-0.409 0,-0.611 0.366,-0.458 0.702,-0.732 0.732,-1.007 0.031,-0.275 -0.458,-0.702 -0.885,-0.732 h -1.129 c -0.524,0.894 -1.094,1.76 -1.709,2.594 -0.214,0.274 -0.672,0.336 -1.13,0.549 -0.183,-0.763 -0.335,-1.312 -0.518,-2.014 -1.255,0.901 -2.34,2.017 -3.205,3.296 -0.275,0.366 -0.641,0.641 -1.099,0 0.098,-0.596 0.262,-1.18 0.488,-1.74 0.397,-0.598 0.846,-1.16 1.343,-1.678 l -2.655,-0.397 c -0.61,0.641 -0.885,1.77 -1.801,1.434 -0.915,-0.335 -1.068,0.58 -1.495,0.947 l -1.099,2.533 c -1.526,-1.068 -3.052,-1.984 -4.883,-1.068 l 1.098,1.251 c -1.741,-0.071 -3.437,0.568 -4.7,1.77 -0.178,-0.35 -0.382,-0.687 -0.61,-1.007 -0.408,0.175 -0.84,0.289 -1.282,0.336 -0.458,0 -0.488,-0.58 -0.702,-0.977 -0.214,-0.397 -0.885,-0.763 -1.801,0 0.792,0.863 0.792,2.189 0,3.052 -0.366,0.244 -0.732,0.458 -1.099,0 -0.366,-0.458 -1.342,-0.336 -2.014,-0.427 -0.909,-0.193 -1.821,0.316 -2.136,1.19 l 0.854,0.275 0.916,0.183 c -0.275,2.045 -1.618,2.442 -3.052,2.533 l -1.129,-1.068 -1.252,0.488 -0.977,-1.587 c -0.018,0.552 -0.069,1.103 -0.152,1.648 0,0.458 -0.336,0.916 -0.611,1.618 1.01,-0.162 2.03,-0.253 3.053,-0.275 0.976,0 2.014,-0.61 3.052,0 -0.794,0.824 -1.771,0.214 -2.625,0.611 l -0.641,1.953 c -1.526,-0.641 -2.259,0.549 -3.052,1.16 0,0.152 0,0.396 0,0.488 -1.099,0.946 -2.167,1.923 -3.357,2.777 -1.102,0.774 -1.977,1.827 -2.534,3.053 l 0.611,0.702 c -1.996,1.239 -3.243,3.39 -3.327,5.737 -0.977,0 -1.618,0.214 -1.923,1.16 -0.217,0.61 -0.482,1.202 -0.793,1.77 -0.95,-0.284 -1.975,0.058 -2.564,0.855 -0.662,0.707 -1.284,1.451 -1.862,2.228 -0.155,0.377 -0.228,0.783 -0.214,1.19 -0.366,0 -0.854,0 -1.098,0.397 -0.371,0.481 -1.061,0.569 -1.541,0.199 -0.075,-0.058 -0.142,-0.124 -0.199,-0.199 l -1.831,2.747 c -0.885,0 -1.74,-0.244 -2.595,-0.305 -0.366,0 -0.671,0.152 -0.518,0.702 l 1.678,0.488 c -0.854,0.916 -1.923,0.366 -2.777,0.58 -1.0378,0.702 -1.7093,2.014 -3.2354,1.862 -0.2557,0.025 -0.4831,0.173 -0.6104,0.397 -0.6754,0.708 -0.9901,1.686 -0.8546,2.655 0.1526,0.488 0,1.312 0.2137,1.465 1.1903,0.641 -0.5494,0.763 -0.1831,1.373 0.3168,0.843 0.5121,1.727 0.5799,2.625 l 1.8617,0.672 c -0.2753,1.184 -0.9159,2.251 -1.8312,3.052 0.249,0.074 0.5045,0.125 0.763,0.152 0.4578,0 0.9767,0 1.0682,0.489 0.0473,0.416 -0.0494,0.836 -0.2747,1.19 -0.3113,0.354 -0.6708,0.662 -1.0682,0.915 0,0.336 0,0.55 0.2442,0.672 1.3017,1.172 2.8754,2.001 4.5779,2.411 0.603,0.116 1.226,0.064 1.801,-0.153 1.382,-0.419 2.632,-1.186 3.632,-2.228 0.732,-0.732 1.373,-1.556 2.625,-1.556 0.366,0 0.793,-0.58 1.129,-0.977 0.336,-0.397 0,-0.915 0.855,-0.946 0.539,0.507 1.011,1.081 1.404,1.709 0.518,1.252 0.335,2.778 1.678,3.693 0.214,0.153 0.153,0.672 0.275,1.007 0.248,0.932 0.574,1.841 0.977,2.717 0.671,1.221 1.495,2.35 2.289,3.571 -0.085,0.314 -0.219,0.613 -0.397,0.885 -0.214,0.264 -0.46,0.5 -0.733,0.702 0.906,0.793 1.518,1.868 1.74,3.052 0.641,0 1.16,0 1.648,-0.183 0.412,-0.08 0.82,-0.181 1.221,-0.305 0.259,-0.719 0.619,-1.397 1.068,-2.015 0.598,-0.671 1.49,-1.002 2.381,-0.885 0.6,0.031 1.201,0.031 1.801,0 1.284,-1.627 1.992,-3.634 2.014,-5.707 0.179,-1.294 0.424,-2.577 0.732,-3.846 0.149,-0.413 0.414,-0.773 0.763,-1.038 0.418,-0.32 0.868,-0.597 1.343,-0.824 0.639,-0.262 1.243,-0.6 1.801,-1.007 0.458,-0.427 0.61,-1.19 1.038,-1.709 0.427,-0.519 1.037,-0.946 1.037,-1.923 -0.84,-1.182 -2.007,-2.094 -3.357,-2.625 -1.068,-0.274 -1.373,-1.19 -1.587,-2.197 -0.458,-2.137 0.885,-3.907 0.977,-5.921 0,-0.214 0.305,-0.397 0.458,-0.58 0.439,-0.428 0.847,-0.887 1.22,-1.374 1.002,-1.469 2.445,-2.58 4.121,-3.174 2.233,-0.813 4.169,-2.281 5.555,-4.212 0.026,-0.089 0.026,-0.185 0,-0.274 0,-0.855 -0.55,-1.679 -0.275,-2.167 0.641,-1.252 0.915,-2.839 2.503,-3.51 0.427,-0.153 0.763,-0.641 1.159,-1.038 h 3.999 c 1.245,-0.03 2.47,0.321 3.509,1.007 0.429,0.285 0.734,0.721 0.855,1.221 0.078,0.71 0.078,1.427 0,2.137 -1.087,0.15 -2.073,0.72 -2.747,1.587 -1.254,1.488 -2.701,2.802 -4.303,3.906 -0.613,0.481 -1.185,1.012 -1.709,1.588 -0.306,0.305 -0.641,0.824 -0.947,0.824 -1.22,0 -1.22,1.159 -1.861,1.678 -0.641,0.519 -0.397,1.74 -0.183,2.656 0.794,1.887 0.902,3.993 0.305,5.951 -0.367,0.824 0,1.404 1.037,1.862 l 2.259,1.19 c 0,1.313 1.129,0.641 1.648,1.129 0.519,0.489 1.587,0.428 2.472,0.184 1.771,-0.489 3.602,-0.825 5.372,-1.343 2.789,-0.595 5.613,-1.013 8.454,-1.252 0.274,1.246 1.451,2.079 2.717,1.923 0.348,-0.02 0.696,0.054 1.007,0.214 0.366,0.213 0.732,0.519 0.458,1.037 -2.218,-0.228 -4.431,0.48 -6.105,1.954 -0.461,0.237 -0.976,0.353 -1.495,0.336 -0.712,-0.035 -1.418,-0.148 -2.106,-0.336 -3.131,-0.687 -6.406,-0.152 -9.156,1.495 -0.146,0.912 -0.019,1.847 0.366,2.686 0.488,0.977 1.618,0.427 2.106,0.855 v 3.632 c -0.007,0.925 -0.653,1.723 -1.557,1.923 -0.778,0.28 -1.645,-0.027 -2.075,-0.733 -0.61,-0.702 -1.312,-1.373 -1.862,-1.953 -1.516,-0.049 -2.908,0.834 -3.51,2.228 -0.838,1.548 -1.097,3.344 -0.732,5.066 0,0.702 0.305,1.404 0.397,2.106 0.179,0.729 -0.069,1.497 -0.641,1.984 h -3.083 c 0,0.519 0.183,1.068 0,1.312 -0.553,0.81 -1.495,1.263 -2.472,1.191 -1.223,-0.11 -2.299,-0.851 -2.839,-1.954 -1.907,-0.023 -3.785,0.473 -5.432,1.435 -0.774,0.399 -1.568,0.756 -2.381,1.068 -0.671,0.244 -1.373,0.336 -2.014,0.641 -0.632,0.375 -1.243,0.782 -1.832,1.221 l -2.838,-2.198 v 0 c -0.918,-0.634 -2.134,-0.634 -3.052,0 -0.75,0.439 -1.549,0.787 -2.381,1.038 -0.485,0.165 -1.01,0.165 -1.495,0 -0.183,0 -0.183,-0.61 -0.305,-1.007 l -2.412,-0.794 c -0.396,-0.702 -0.824,-1.373 -1.159,-2.075 -0.404,-0.561 -0.277,-1.343 0.284,-1.747 0.027,-0.019 0.054,-0.037 0.082,-0.054 0.019,-0.417 0.101,-0.828 0.244,-1.221 0.315,-0.615 0.704,-1.189 1.16,-1.709 0.514,-0.425 1.066,-0.803 1.648,-1.129 -1.77,-1.282 -1.801,-1.374 -1.282,-3.052 0.078,-0.259 0.17,-0.514 0.275,-0.763 0.188,-0.415 0.004,-0.903 -0.41,-1.091 -0.006,-0.003 -0.012,-0.006 -0.018,-0.008 -0.408,-0.077 -0.829,0.023 -1.159,0.275 -0.579,0.542 -1.119,1.123 -1.618,1.739 -0.732,-0.046 -1.466,-0.046 -2.197,0 -0.214,0 -0.336,0.489 -0.519,0.763 l 0.824,0.336 c 0.397,1.221 -1.038,0.824 -1.435,1.587 0.367,1.282 -0.458,3.052 1.069,4.121 0.121,0.133 0.187,0.307 0.183,0.488 0.406,1.851 0.691,3.727 0.854,5.616 -0.366,0.244 -0.732,0.427 -1.068,0.702 l -0.977,0.976 c -1.251,-0.885 -2.441,-1.098 -3.54,0 -0.183,0.214 -0.641,0.153 -0.9768,0.214 -0.8796,0.055 -1.7558,0.157 -2.6247,0.305 -0.9157,0.183 -1.0683,0.672 -0.7936,1.801 0.0507,0.344 0.0507,0.694 0,1.038 l -2.2585,-0.855 c -0.3901,0.952 -0.8921,1.853 -1.4955,2.686 -0.7936,0.854 0.2136,1.953 -0.641,2.808 -2.4948,0.363 -4.9099,1.147 -7.1419,2.319 -0.0851,0.455 -0.1462,0.913 -0.1831,1.374 0.0311,1.028 -0.6962,1.925 -1.7092,2.106 -1.3349,0.289 -2.4615,1.179 -3.052,2.411 -1.531,0.267 -3.1006,-0.17 -4.2729,-1.19 0,0 -0.58,0 -0.9462,0 0.4578,1.251 1.1598,2.228 0.5189,3.571 -1.404,0 -2.869,0.671 -4.273,-0.336 -0.2429,-0.107 -0.52,-0.107 -0.763,0 l -3.3268,0.732 0.5189,2.228 c 1.3124,0.428 2.5638,0.885 3.8456,1.191 1.1537,0.233 2.1087,1.038 2.5333,2.136 0.564,1.387 1.5733,2.546 2.8689,3.296 0.315,2.906 0.0873,5.845 -0.6714,8.668 -0.1395,1.189 -1.2163,2.039 -2.4048,1.9 -0.1157,-0.014 -0.2301,-0.036 -0.3421,-0.068 -2.0971,-0.244 -4.2067,-0.366 -6.3178,-0.367 -2.7164,-0.152 -5.4022,-0.58 -8.1491,-0.61 -0.4273,0 -0.8241,-0.305 -1.2513,-0.366 -0.3397,-0.094 -0.6981,-0.094 -1.0378,0 -1.0987,0.641 -2.1975,1.343 -3.3878,2.106 0.2137,0.457 0.4273,0.915 0.6104,1.403 0.2409,0.463 0.3764,0.974 0.3968,1.496 -0.1047,1.15 0.0092,2.31 0.3357,3.418 0.1374,0.685 0.1374,1.391 0,2.076 -0.2298,1.67 -0.7898,3.279 -1.6481,4.73 -0.2283,0.533 -0.3626,1.101 -0.3968,1.679 l 1.7703,1.282 v 4.487 c 1.2065,0.346 2.4865,0.346 3.693,0 1.526,-0.458 2.3806,0 3.2962,1.526 0.1832,0.305 0.3358,0.61 0.4884,0.915 0.3656,0.672 1.0667,1.092 1.8312,1.099 1.7934,-1.61 4.2055,-2.347 6.5925,-2.014 1.3045,-0.017 2.6037,-0.171 3.8762,-0.458 0.5179,-1.192 1.5336,-2.096 2.7774,-2.472 0.3155,-0.157 0.5802,-0.401 0.763,-0.702 l 2.3501,-3.236 c -0.0843,-0.202 -0.1865,-0.396 -0.3052,-0.579 -0.7118,-1.077 -0.5985,-2.499 0.2747,-3.449 0.7325,-0.977 1.5565,-1.923 2.228,-3.052 0.408,-0.694 1.0996,-1.174 1.8923,-1.313 1.4439,-0.425 2.8207,-1.052 4.0898,-1.862 0.8423,-0.38 1.3105,-1.291 1.1292,-2.197 0,-0.244 0,-0.488 -0.1831,-0.763 -0.3052,-1.801 -0.1526,-2.137 1.3734,-3.052 l 1.343,-0.672 c 0.8988,0.149 1.8059,0.241 2.7163,0.275 0.9767,0 1.5566,0.763 2.4112,0.977 0.9211,0.351 1.9618,0.15 2.6858,-0.519 0.791,-0.704 1.7,-1.262 2.686,-1.648 0.907,-0.323 1.731,-0.844 2.411,-1.526 0.336,-0.367 0.946,-0.824 1.312,-0.733 1.19,0.315 2.354,0.724 3.48,1.221 0.641,0.275 0.793,0.885 1.007,1.496 0.392,1.45 1.198,2.755 2.32,3.754 1.403,1.068 2.655,2.319 3.998,3.448 0.432,0.434 0.968,0.749 1.556,0.916 1.463,0.334 2.823,1.015 3.968,1.984 0.794,0.519 1.74,0.824 2.167,1.831 0.183,0.298 0.463,0.525 0.794,0.641 2.075,0.763 1.953,2.716 2.472,4.304 l -1.16,1.922 c -0.275,0 -0.336,0.214 -0.427,0.214 -2.289,0.86 -4.765,1.091 -7.173,0.671 -0.488,-0.183 -1.19,0.184 -1.739,0.397 -0.55,0.214 -0.153,0.458 -0.245,0.733 l 6.105,3.235 c 0.486,0.27 1.099,0.095 1.369,-0.392 0.089,-0.16 0.132,-0.341 0.126,-0.524 0,-0.366 -0.153,-0.702 -0.153,-1.037 -0.019,-0.903 0.388,-1.763 1.099,-2.32 h 1.496 l 0.976,-1.007 c 0.672,-0.763 0.702,-1.953 1.893,-2.442 0.458,-0.183 0.305,-0.976 0,-1.404 -0.386,-0.409 -0.805,-0.787 -1.252,-1.129 0.03,-1.071 0.654,-2.036 1.618,-2.503 0.75,0.189 1.484,0.434 2.197,0.733 0.569,0.421 1.091,0.902 1.557,1.434 0,-0.702 0.183,-1.129 0,-1.282 -0.592,-0.648 -1.27,-1.213 -2.014,-1.678 -1.648,-0.977 -3.388,-1.801 -5.036,-2.656 v -1.434 c -3.048,0.293 -5.842,-1.717 -6.532,-4.7 -0.232,-0.77 -0.758,-1.417 -1.465,-1.801 l -1.556,-1.007 c -0.878,-0.487 -1.391,-1.441 -1.313,-2.442 0.066,-1.016 0.066,-2.036 0,-3.052 1.435,-0.397 2.625,-1.495 4.243,-0.977 0.213,0.977 -0.611,2.106 0.732,2.686 l 1.435,-1.19 c 0.765,0.131 1.364,0.73 1.495,1.495 0.528,2.568 2.489,4.6 5.036,5.22 0.658,0.235 1.284,0.553 1.862,0.946 1.007,0.671 1.953,1.495 3.052,2.075 1.481,0.804 2.78,1.905 3.815,3.235 0,0.977 0,1.954 -0.305,3.052 -0.198,0.875 0.054,1.791 0.671,2.442 0.366,0.377 0.683,0.797 0.946,1.251 0.559,1.102 1.429,2.015 2.503,2.625 0.183,0 0.427,0.366 0.397,0.55 -0.183,1.19 0.641,1.465 1.495,1.8 0,0 0.184,0.275 0.275,0.428 l -1.068,1.342 c 0.923,0.752 1.478,1.863 1.526,3.053 1.282,-0.641 2.136,1.281 3.51,0.213 l -0.427,-1.923 c 1.129,-0.396 0.854,-1.037 0.518,-1.678 h 2.808 l 0.55,-1.16 v 0 c -0.183,-1.068 -0.55,-1.496 -1.404,-1.19 -0.784,0.293 -1.666,0.102 -2.259,-0.489 0,-0.793 0.183,-1.648 0.305,-2.472 -0.518,-1.068 -1.709,-1.984 -0.671,-3.479 0.429,0.249 0.879,0.464 1.343,0.641 0.418,0.122 0.863,0.122 1.282,0 0.244,0 0.397,-0.55 0.458,-0.855 0.061,-0.305 0.518,-0.641 0.946,-0.763 1.966,-0.864 4.223,-0.762 6.104,0.275 0.968,0.629 2.218,0.617 3.174,-0.031 1.292,-1.033 3.036,-1.301 4.578,-0.702 0.294,-0.297 0.634,-0.544 1.007,-0.732 -0.824,-0.211 -1.63,-0.486 -2.411,-0.824 -0.447,-0.278 -0.815,-0.667 -1.068,-1.13 -0.458,-0.824 -0.855,-1.709 -1.282,-2.594 1.374,-3.052 1.374,-3.052 2.686,-3.815 -0.297,-2.203 0.97,-4.319 3.052,-5.097 l 0.366,-2.167 3.663,-3.723 c 1.138,-0.387 2.372,-0.387 3.51,0 0.183,1.465 0.427,1.739 1.648,1.678 1.221,-0.061 1.923,-0.366 2.808,0.519 -0.275,1.19 -1.832,0.916 -2.381,2.075 l 2.167,1.282 0.366,2.167 c 0.519,0 1.069,0 1.313,0 0.961,-0.63 1.984,-1.162 3.052,-1.587 0.766,-0.41 1.644,-0.56 2.503,-0.427 0.61,0 1.007,-0.244 0.824,-1.099 h -0.947 c -1.375,0.401 -2.815,-0.389 -3.216,-1.764 -0.036,-0.122 -0.062,-0.247 -0.08,-0.372 -0.146,-0.529 0.078,-1.092 0.55,-1.374 0.227,-0.134 0.461,-0.256 0.702,-0.366 3.534,-1.584 7.292,-2.613 11.14,-3.052 0,0 0.244,0.183 0.396,0.275 -0.909,1.047 -2.062,1.854 -3.357,2.35 l 0.58,1.282 c -1.129,1.19 -1.618,3.052 -3.54,3.51 0.976,1.373 0.976,1.373 1.983,1.892 1.008,0.519 2.32,1.16 3.419,1.831 2.136,0 4.242,0 6.379,0.275 4.336,0.216 8.592,1.252 12.544,3.052 1.495,0.86 3.069,1.575 4.7,2.136 0.844,0.231 1.722,0.314 2.594,0.244 v 0 c -0.472,-0.633 -0.767,-1.381 -0.854,-2.167 0.22,-1.829 -0.733,-3.6 -2.381,-4.425 l 2.777,-4.395 c 1.82,-0.63 3.507,-1.593 4.975,-2.838 1.571,-0.978 3.25,-1.767 5.006,-2.351 0.503,-0.181 1.053,-0.181 1.556,0 l 0.58,0.245 c 0.158,-3.264 0.88,-6.476 2.137,-9.492 0.883,-2.959 2.717,-5.545 5.219,-7.356 2.671,-1.113 5.567,-1.583 8.454,-1.373 1.178,0.106 2.363,0.106 3.54,0 0.916,-0.183 0.916,-1.069 0.916,-1.862 -0.026,-1.623 -0.22,-3.239 -0.58,-4.822 -0.414,-1.612 -0.35,-3.308 0.183,-4.884 -2.054,-0.664 -3.398,-2.636 -3.266,-4.792 0.524,-2.338 1.567,-4.528 3.053,-6.409 0.641,-0.977 1.281,-1.953 1.892,-3.052 0.61,-1.099 1.373,-2.564 2.045,-3.846 1.526,-2.869 3.052,-5.768 4.364,-8.729 1.38,-2.919 2.404,-5.993 3.052,-9.156 0.238,-1.535 0.371,-3.085 0.397,-4.639 -0.053,-1.603 -0.257,-3.197 -0.61,-4.761 -0.644,-2.329 -0.108,-4.825 1.434,-6.684 0.734,-0.641 1.508,-1.232 2.32,-1.77 1.076,-0.898 2.039,-1.923 2.869,-3.053 1.939,-2.775 3.088,-6.023 3.326,-9.4 v 0 c -1.415,-0.527 -2.767,-1.213 -4.028,-2.045 z m -159.746,30.002 c -0.108,-0.281 -0.23,-0.556 -0.367,-0.824 l 3.053,-0.427 c -0.428,1.16 -1.496,1.19 -2.686,1.251 z m 3.052,-1.404 c -0.047,-0.355 -0.047,-0.713 0,-1.068 0,0 0.397,-0.183 0.61,-0.244 0.214,-0.061 0.244,0.549 0.153,0.641 -0.248,0.31 -0.536,0.587 -0.855,0.824 z m 19.35,18.862 c 0.28,0.168 0.479,0.444 0.549,0.763 0,0.305 -0.671,0.61 -1.068,0.397 -0.397,-0.214 -1.19,-0.702 -1.953,-1.129 0.756,-0.333 1.616,-0.344 2.38,-0.031 z m -24.112,10.591 v 0 c 0.367,-0.061 0.184,-0.031 0,0 z m 40.074,71.418 c 0,0 0,0.428 0,0.672 -0.853,-0.136 -1.648,-0.518 -2.289,-1.099 1.191,-0.58 1.74,-0.488 2.289,0.427 z m 28.171,-84.817 c -0.669,-0.077 -1.345,-0.077 -2.014,0 -0.57,0.292 -1.103,0.65 -1.587,1.068 -0.31,-0.292 -0.596,-0.608 -0.855,-0.946 l -3.052,-4.883 c 0.179,-0.345 0.405,-0.663 0.671,-0.946 0.646,-0.514 1.318,-0.993 2.015,-1.435 1.587,0.916 3.052,1.77 4.669,2.808 0.611,0.427 0.886,1.251 1.404,1.984 z"
               fill="#2c5c34"
               transform="matrix(1.00341,0,0,1,113,389)"
               id="path899" />
            <path
               d="m 36.1061,129.378 c -0.9156,-0.275 -0.2441,-1.709 -1.3734,-1.709 -0.2136,-1.069 -1.2208,-0.336 -1.7397,-0.763 -0.405,-0.437 -0.8924,-0.79 -1.4345,-1.038 -0.8545,-0.214 -0.763,0.793 -1.1903,1.16 -0.4273,0.366 -0.2747,0.274 -0.4273,0.274 -0.93,0.126 -1.8419,0.361 -2.7163,0.702 -0.4273,0 -0.9462,-0.305 -1.404,-0.488 l -0.824,0.672 c -2.0144,-1.13 -2.0449,-1.13 -3.5405,0.915 l -1.8617,-1.282 c 0,0.336 -0.2747,0.489 -0.2747,0.641 0,1.252 0,1.221 -1.2514,1.648 -0.4244,0.184 -0.8243,0.42 -1.1903,0.702 -1.2513,-0.58 -1.1293,-1.556 -0.8851,-2.533 -0.6714,-0.549 -1.3124,-1.007 -1.8923,-1.557 -0.1864,-0.26 -0.3306,-0.549 -0.4273,-0.854 v 0 l -1.465,2.32 c -0.763,0.244 -2.1059,-1.496 -2.56372,0.579 0,0.397 0.91562,0.275 0.57992,0.916 -0.33575,0.641 -1.46502,-0.336 -1.73971,0.916 0.67894,0.001 1.35549,-0.081 2.01441,-0.245 1.1876,-0.381 2.4762,-0.294 3.6014,0.245 0,0 0.1831,0.244 0.2747,0.396 l -0.5799,0.855 c 0,0.488 0.8241,0.275 0.5799,0.794 l -4.57811,0.885 v 0.183 l 2.83841,0.213 c 0.763,0.733 1.404,1.221 1.9228,1.771 0.4359,0.372 0.4875,1.027 0.1153,1.462 -0.1202,0.141 -0.276,0.247 -0.451,0.308 -0.4578,0.275 -0.9767,0.458 -1.7092,0.793 0.2744,0.021 0.5498,0.021 0.8241,0 2.0887,-0.56 4.3181,-0.181 6.1042,1.038 2.3907,1.217 5.2471,1.078 7.5081,-0.366 0.3523,-0.267 0.7584,-0.455 1.1903,-0.55 1.5772,-0.482 3.126,-1.053 4.6392,-1.709 1.6853,-0.408 3.2199,-1.286 4.4255,-2.533 0.5799,-0.61 1.0987,-1.282 1.5871,-1.862 l -0.4273,-1.953 c -0.7279,-0.372 -1.483,-0.688 -2.2586,-0.946 z"
               fill="#2c5c34"
               transform="matrix(1.00341,0,0,1,113,389)"
               id="path901" />
          </g>
        </g>
      </g>
      <g
         id="g919"
         transform="translate(12.121831,-52.527929)">
        <g
           id="g917">
          <g
             id="g915">
            <path
               d="m 104.666,125.177 c 0,3.4 -2.756,6.156 -6.1559,6.156 -3.4,0 -6.1563,-2.756 -6.1563,-6.156 0,-3.4 2.7563,-6.156 6.1563,-6.156 3.3999,0 6.1559,2.756 6.1559,6.156 z"
               transform="matrix(1,0,0,1.00508,896,224)"
               id="path909" />
            <path
               d="m 110.823,127.229 c 0,6.8 -5.513,12.313 -12.3129,12.313 -6.8,0 -12.3125,-5.513 -12.3125,-12.313 V 110.812 H 20.5309 v 59.511 H 176.489 V 110.812 H 110.823 Z M 28.7392,162.115 V 146.11 c 8.052,1.66 14.3439,7.953 16.004,16.005 z M 168.281,146.11 v 16.005 h -16.004 c 1.66,-8.053 7.952,-14.345 16.004,-16.005 z"
               transform="matrix(1,0,0,1.00508,896,224)"
               id="path911" />
            <path
               d="m 176.491,48.3292 -0.002,-1.1313 -4.08,-10.2013 C 169.916,30.764 163.879,26.6771 157.166,26.6771 H 39.8539 c -6.7128,0 -12.7494,4.0869 -15.2424,10.3195 L 20.5329,47.193 v 6.4827 L 31.0166,78.1374 20.5309,102.604 h 50.2422 c 2.2704,-0.79 4.4674,-1.776 6.566,-2.9487 0.8106,0.4317 1.6517,0.8037 2.5165,1.1137 -0.2848,0.17 -0.5489,0.344 -0.844,0.512 -0.8627,0.488 -1.7098,0.921 -2.543,1.323 H 176.489 L 166.003,78.1374 176.491,53.6663 Z M 60.5256,99.6773 c -2.3242,0.6847 -4.7093,1.1437 -7.1218,1.3707 -6.7396,0.682 -12.3543,-0.255 -12.54,-2.0935 L 40.765,97.9786 c 4.0363,1.1302 8.2615,1.4198 12.4143,0.8505 2.5618,-0.2439 5.0964,-0.7188 7.573,-1.4188 -0.2573,0.7265 -0.3351,1.5042 -0.2267,2.267 z m -7.683,-4.1762 c -6.7397,0.6817 -12.3542,-0.2555 -12.5403,-2.0938 -0.1859,-1.838 5.1271,-3.8809 11.8668,-4.5628 0.1408,-0.0143 0.2754,-0.0207 0.4153,-0.0338 2.5902,1.6821 5.3695,3.0531 8.2806,4.0846 0.3792,0.1388 0.8071,0.2892 1.2674,0.4437 -2.9721,1.1781 -6.1029,1.9068 -9.2898,2.1621 z m 12.467,-14.1368 2.4711,4.3637 C 66.5534,85.4063 65.2608,85.0055 63.9339,84.5191 57.5732,82.189 52.9321,78.8936 53.5678,77.1585 c 0.5928,-1.6178 5.5683,-1.3047 11.3973,0.6358 -0.3957,1.185 -0.2705,2.4824 0.3443,3.5698 z m -2.5265,6.2962 c 1.8912,0.695 3.8259,1.2655 5.7916,1.7073 -0.77,0.5042 -1.5754,1.0706 -2.3702,1.6772 -1.4176,-0.3573 -2.8159,-0.788 -4.1887,-1.2906 -6.3606,-2.3305 -11.0016,-5.626 -10.3663,-7.3608 l 0.3376,-0.9208 c 3.1372,2.7796 6.8119,4.8856 10.796,6.1877 z m 38.1009,-9.4318 c -6.701,0.9895 -12.3524,0.3101 -12.6223,-1.5175 -0.27,-1.8276 4.9439,-4.1118 11.6452,-5.1011 6.7011,-0.9895 12.3531,-0.3101 12.6231,1.5175 0.27,1.8276 -4.944,4.1116 -11.646,5.1011 z m 12.317,-0.5559 0.143,0.9702 c 0.27,1.8276 -4.944,4.1118 -11.645,5.1013 -6.7011,0.9893 -12.3529,0.3101 -12.6228,-1.5175 L 88.933,81.2565 c 4.0838,0.9444 8.3179,1.0402 12.44,0.2816 4.166,-0.4654 8.191,-1.781 11.828,-3.8653 z M 80.5422,76.5827 c -5.8946,3.3379 -11.4112,4.7407 -12.3215,3.1329 -0.9105,-1.6076 3.1302,-5.6165 9.0246,-8.9549 5.8946,-3.3381 11.4113,-4.7405 12.3216,-3.1331 0.9105,1.6074 -3.1305,5.6172 -9.0251,8.9551 z m 4.8448,3.5587 c -0.6723,0.4357 -1.3538,0.8714 -2.0975,1.2927 -5.8946,3.3381 -11.4112,4.7409 -12.3215,3.1333 l -0.4834,-0.8535 c 4.1497,-0.5908 8.134,-2.0272 11.7059,-4.2205 0.7949,-0.45 1.79,-1.0507 2.8431,-1.7443 z M 63.9425,99.5622 c -0.9103,-1.6079 3.1303,-5.6168 9.0249,-8.9549 0.3622,-0.2052 0.7149,-0.3778 1.073,-0.5676 l -0.513,3.9909 c -0.1543,1.1984 0.1918,2.4075 0.9571,3.3426 -5.1856,2.6338 -9.7242,3.6328 -10.542,2.189 z m 37.2345,-1.9774 c -0.236,1.8323 -5.8739,2.6172 -12.5927,1.7539 C 81.8656,98.475 76.6096,96.2893 76.8452,94.457 l 0.125,-0.9727 c 3.675,2.0158 7.7248,3.2554 11.8983,3.6424 4.1358,0.6813 8.3674,0.5059 12.4325,-0.515 z M 89.295,93.8087 C 82.5762,92.9452 77.3204,90.7595 77.556,88.927 c 0.2356,-1.8321 5.8733,-2.6176 12.592,-1.7539 6.7187,0.8635 11.975,3.0496 11.739,4.8817 -0.236,1.8325 -5.8733,2.6176 -12.592,1.7539 z m 18.624,4.1684 c -1.169,-0.1504 -2.291,-0.3414 -3.348,-0.5635 l 0.284,-2.207 c 1.259,0.2534 2.428,0.4404 3.349,0.5586 2.818,0.3831 5.668,0.4689 8.504,0.2557 0.04,0.6591 0.23,1.3004 0.556,1.8745 l 0.059,0.1047 c -3.119,0.4478 -6.287,0.44 -9.404,-0.0232 z m 9.823,-5.4593 c -3.026,0.3936 -6.092,0.3698 -9.112,-0.0708 -1.195,-0.1537 -2.338,-0.3526 -3.417,-0.5808 -0.177,-2.0847 -1.472,-3.909 -3.382,-4.7635 0.117,-0.0164 0.246,-0.033 0.356,-0.0492 2.113,-0.3074 4.201,-0.7626 6.25,-1.362 0.346,0.0361 0.694,0.0745 1.046,0.1198 5.111,0.6567 9.367,2.079 11.012,3.5282 -1.057,0.9304 -1.983,1.9995 -2.753,3.1781 z m -1.599,-11.5912 c 1.844,0.8155 3.74,1.5087 5.675,2.0746 3.978,1.323 8.184,1.8153 12.36,1.4465 l -0.277,0.9407 c -0.521,1.7726 -6.212,1.662 -12.711,-0.2475 -2.227,-0.6392 -4.391,-1.4789 -6.466,-2.5086 0.572,-0.4786 1.052,-1.0564 1.419,-1.7057 z m -0.51,-9.0573 c 3.059,0.0835 6.093,0.5893 9.014,1.5033 6.499,1.9093 11.346,4.8943 10.825,6.6666 -0.52,1.7726 -6.211,1.662 -12.711,-0.2474 -2.138,-0.6169 -4.219,-1.4172 -6.219,-2.3921 l -0.703,-4.7605 c -0.046,-0.2622 -0.115,-0.52 -0.206,-0.7699 z m 4.542,24.3777 c -0.707,-1.2487 1.592,-3.9457 5.408,-6.6524 4.779,0.8048 10.338,0.7847 11.528,-3.2633 l 0.76,-2.5882 c 1.888,-0.4018 3.241,-0.3056 3.65,0.4159 0.911,1.6076 -3.13,5.617 -9.025,8.9547 -5.894,3.3379 -11.411,4.7411 -12.321,3.1333 z m 2.747,4.852 -0.483,-0.854 c 4.15,-0.5907 8.134,-2.027 11.705,-4.2202 3.719,-1.9349 7,-4.6127 9.641,-7.8677 l 0.483,0.8535 c 0.911,1.6078 -3.13,5.6167 -9.024,8.9548 -5.895,3.3386 -11.412,4.7406 -12.322,3.1336 z m 24.745,-12.3134 c 6.434,-0.5536 11.684,0.3768 11.864,2.1527 0.186,1.8382 -5.127,3.8809 -11.867,4.5628 -1.215,0.1227 -2.374,0.1785 -3.49,0.1999 2.258,-2.1147 3.911,-4.5425 3.493,-6.9154 z m 0.558,12.2624 c -3.552,0.491 -7.166,0.298 -10.646,-0.57 0.741,-0.434 1.59,-0.961 2.478,-1.5569 2.645,0.2196 5.305,0.1888 7.944,-0.092 4.182,-0.2739 8.264,-1.4038 11.992,-3.3196 l 0.099,0.9758 c 0.186,1.838 -5.127,3.8807 -11.867,4.5627 z M 168.283,51.9815 158.9,73.875 h -24.473 c -2.78,-1.601 -5.748,-2.8481 -8.837,-3.7118 -3.067,-0.9009 -8.975,-2.3107 -12.977,-1.2961 -3.814,-1.6361 -9.991,-1.0394 -13.1945,-0.5662 -1.6995,0.2502 -3.3843,0.5916 -5.0471,1.023 l -1.8937,-3.3447 c -2.9755,-5.2544 -12.7965,-0.442 -16.8808,1.8709 -2.9755,1.6265 -5.7134,3.6537 -8.1375,6.0249 h -3.8813 c -3.8836,-1.0718 -8.7528,-1.8221 -11.4599,0 H 38.1201 L 28.7413,51.991 V 47.1983 H 168.283 Z"
               transform="matrix(1,0,0,1.00508,896,224)"
               id="path913" />
          </g>
        </g>
      </g>
      <g
         id="g933"
         transform="translate(0,-76)">
        <g
           id="g931">
          <g
             id="g929">
            <path
               d="m 630.833,215.333 h -4.583 v -9.166 h -64.167 v 9.166 H 557.5 c -5.042,0 -9.167,4.125 -9.167,9.167 0,5.042 4.125,9.167 9.167,9.167 h 73.333 c 5.042,0 9.167,-4.125 9.167,-9.167 0,-5.042 -4.125,-9.167 -9.167,-9.167 z"
               fill="#b33d3d"
               id="path921" />
            <path
               d="m 630.604,169.729 c 2.75,-2.75 2.75,-7.104 0,-9.625 l -36.208,-36.208 c -2.75,-2.75 -7.104,-2.75 -9.625,0 l -8.938,8.937 45.834,45.834 z"
               fill="#b33d3d"
               id="path923" />
            <path
               d="m 685.604,105.104 c 2.75,2.75 7.104,2.75 9.625,0 l 8.938,-8.9373 -45.834,-45.8334 -8.937,8.9375 c -2.75,2.75 -2.75,7.1042 0,9.625 z"
               fill="#b33d3d"
               id="path925" />
            <path
               d="m 729.375,185.542 -61.875,-61.875 13.75,-13.75 -36.667,-36.667 -45.833,45.833 36.667,36.667 18.333,-18.333 61.875,61.875 c 3.896,3.896 9.854,3.896 13.75,0 3.896,-3.896 3.896,-9.854 0,-13.75 z"
               fill="#b33d3d"
               id="path927" />
          </g>
        </g>
      </g>
      <text
         xml:space="preserve"
         id="text990"
         style="font-style:normal;font-weight:normal;font-size:40px;line-height:1.25;font-family:sans-serif;white-space:pre;shape-inside:url(#rect992);fill:#000000;fill-opacity:1;stroke:none;"
         transform="matrix(0.80598425,0,0,0.83847314,82.21692,103.06827)"><tspan
           x="142.43359"
           y="401.20898"><tspan
             style="font-style:normal;font-variant:normal;font-weight:normal;font-stretch:normal;font-family:'CMU Serif';-inkscape-font-specification:'CMU Serif'">First nature</tspan></tspan></text>
      <text
         xml:space="preserve"
         id="text990-3"
         style="font-style:normal;font-weight:normal;font-size:40px;line-height:1.25;font-family:sans-serif;white-space:pre;shape-inside:url(#rect992-7);fill:#000000;fill-opacity:1;stroke:none;"
         transform="matrix(0.80598425,0,0,0.83847314,429.81216,-380.65171)"><tspan
           x="142.43359"
           y="401.20898"><tspan
             style="font-style:normal;font-variant:normal;font-weight:normal;font-stretch:normal;font-family:'CMU Serif';-inkscape-font-specification:'CMU Serif'">Institutions</tspan></tspan></text>
      <text
         xml:space="preserve"
         id="text990-3-2"
         style="font-style:normal;font-weight:normal;font-size:40px;line-height:1.25;font-family:sans-serif;white-space:pre;shape-inside:url(#rect992-7-2);fill:#000000;fill-opacity:1;stroke:none;"
         transform="matrix(0.80598425,0,0,0.83847314,420.84312,97.89691)"><tspan
           x="142.43359"
           y="401.20898"><tspan
             style="font-style:normal;font-variant:normal;font-weight:normal;font-stretch:normal;font-family:'CMU Serif';-inkscape-font-specification:'CMU Serif'">Path dependency</tspan></tspan></text>
      <text
         xml:space="preserve"
         id="text990-3-6"
         style="font-style:normal;font-weight:normal;font-size:40px;line-height:1.25;font-family:sans-serif;white-space:pre;shape-inside:url(#rect992-7-20);fill:#000000;fill-opacity:1;stroke:none;"
         transform="matrix(0.80598425,0,0,0.83847314,818.42776,42.111992)"><tspan
           x="142.43359"
           y="401.20898"><tspan
             style="font-style:normal;font-variant:normal;font-weight:normal;font-stretch:normal;font-family:'CMU Serif';-inkscape-font-specification:'CMU Serif'">Prosperity</tspan></tspan></text>
      <path
         style="fill:none;stroke:#000000;stroke-width:2.13543;stroke-linecap:butt;stroke-linejoin:miter;stroke-miterlimit:4;stroke-dasharray:2.13543, 2.13543;stroke-dashoffset:0;stroke-opacity:1;marker-end:url(#Arrow1Lend)"
         d="M 286.0697,400.05433 C 285.24143,323.8776 383.67575,219.76588 520.78043,216.35015"
         id="path1085"
         sodipodi:nodetypes="cc" />
      <path
         style="fill:none;stroke:#000000;stroke-width:2.13543;stroke-linecap:butt;stroke-linejoin:miter;stroke-miterlimit:4;stroke-dasharray:2.13543, 2.13543;stroke-dashoffset:0;stroke-opacity:1;marker-end:url(#Arrow1Lend-8-6)"
         d="M 618.86973,279.62879 C 596.40555,254.83554 595.02248,203.12378 615.97249,160.47926"
         id="path1085-7"
         sodipodi:nodetypes="cc" />
      <path
         style="fill:none;stroke:#000000;stroke-width:2.13543;stroke-linecap:butt;stroke-linejoin:miter;stroke-miterlimit:4;stroke-dasharray:2.13543, 2.13543;stroke-dashoffset:0;stroke-opacity:1;marker-end:url(#Arrow1Lend-8-6-6)"
         d="m 646.47171,157.75412 c 21.31476,25.7881 20.34738,77.50931 -2.51814,119.15815"
         id="path1085-7-0"
         sodipodi:nodetypes="cc" />
      <path
         style="fill:none;stroke:#000000;stroke-width:2.13543;stroke-linecap:butt;stroke-linejoin:miter;stroke-miterlimit:4;stroke-dasharray:2.13543, 2.13543;stroke-dashoffset:0;stroke-opacity:1;marker-end:url(#Arrow1Lend-8-6-6-3)"
         d="m 713.39842,188.60506 c 55.60047,7.21667 128.91881,37.50931 174.62472,80.58671"
         id="path1085-7-0-1"
         sodipodi:nodetypes="cc" />
      <path
         style="fill:none;stroke:#000000;stroke-width:5.53701;stroke-linecap:butt;stroke-linejoin:miter;stroke-miterlimit:4;stroke-dasharray:none;stroke-dashoffset:0;stroke-opacity:1;marker-end:url(#Arrow1Lend-6)"
         d="M 439.59426,596.50787 C 721.62313,671.75972 910.05745,490.50515 974.30498,418.51799"
         id="path1085-5"
         sodipodi:nodetypes="cc" />
      <text
         xml:space="preserve"
         style="font-style:normal;font-weight:normal;font-size:92.6791px;line-height:1.25;font-family:sans-serif;fill:#000000;fill-opacity:1;stroke:none;stroke-width:2.31698"
         x="622.67004"
         y="582.51831"
         id="text1988"><tspan
           sodipodi:role="line"
           id="tspan1986"
           x="622.67004"
           y="582.51831"
           style="font-style:normal;font-variant:normal;font-weight:normal;font-stretch:normal;font-family:'CMU Serif';-inkscape-font-specification:'CMU Serif';stroke-width:2.31698">?</tspan></text>
      <text
         xml:space="preserve"
         id="text990-3-64"
         style="font-style:normal;font-weight:normal;font-size:40px;line-height:1.25;font-family:sans-serif;white-space:pre;shape-inside:url(#rect992-7-7);fill:#000000;fill-opacity:1;stroke:none;"
         transform="matrix(0.49214286,0,0,0.51198092,592.13474,-30.768334)"><tspan
           x="142.43359"
           y="401.20898"><tspan
             style="font-style:normal;font-variant:normal;font-weight:normal;font-stretch:normal;font-family:'CMU Serif';-inkscape-font-specification:'CMU Serif'">100s of years...</tspan></tspan></text>
      <rect
         style="fill:none;fill-opacity:0.521994;stroke:none;stroke-width:5.53701;stroke-linecap:round;stroke-linejoin:round;stroke-miterlimit:4;stroke-dasharray:none;stroke-dashoffset:0"
         id="rect2080"
         width="1360.6299"
         height="755.90552"
         x="-75.057709"
         y="-74.302231" />
    </g>
  </g>
</svg>
