<?xml version="1.0" encoding="UTF-8" standalone="no"?>
<svg
   xmlns:osb="http://www.openswatchbook.org/uri/2009/osb"
   xmlns:dc="http://purl.org/dc/elements/1.1/"
   xmlns:cc="http://creativecommons.org/ns#"
   xmlns:rdf="http://www.w3.org/1999/02/22-rdf-syntax-ns#"
   xmlns:svg="http://www.w3.org/2000/svg"
   xmlns="http://www.w3.org/2000/svg"
   xmlns:sodipodi="http://sodipodi.sourceforge.net/DTD/sodipodi-0.dtd"
   xmlns:inkscape="http://www.inkscape.org/namespaces/inkscape"
   inkscape:export-ydpi="300"
   inkscape:export-xdpi="300"
   inkscape:export-filename="C:\Users\chris\Dropbox\PhD\A Salty Situation\A_perfect_storm_replication\Plots\dag_mechanism.png"
   sodipodi:docname="dag_mechanism.svg"
   inkscape:version="1.0.1 (3bc2e813f5, 2020-09-07)"
   id="svg8"
   version="1.1"
   viewBox="0 0 251.16345 102.80952"
   height="102.80952mm"
   width="251.16345mm">
  <defs
     id="defs2">
    <linearGradient
       osb:paint="solid"
       id="linearGradient2898">
      <stop
         id="stop2896"
         offset="0"
         style="stop-color:#ff6dff;stop-opacity:1;" />
    </linearGradient>
    <rect
       id="rect1580"
       height="72.389351"
       width="108.2591"
       y="82.853554"
       x="-16.036173" />
    <marker
       inkscape:isstock="true"
       inkscape:stockid="Arrow2Lend"
       orient="auto"
       refY="0"
       refX="0"
       id="Arrow2Lend"
       style="overflow:visible">
      <path
         id="path907"
         style="fill:#000000;fill-opacity:1;fill-rule:evenodd;stroke:#000000;stroke-width:0.625;stroke-linejoin:round;stroke-opacity:1"
         d="M 8.7185878,4.0337352 -2.2072895,0.01601326 8.7185884,-4.0017078 c -1.7454984,2.3720609 -1.7354408,5.6174519 -6e-7,8.035443 z"
         transform="matrix(-1.1,0,0,-1.1,-1.1,0)" />
    </marker>
    <marker
       inkscape:isstock="true"
       inkscape:stockid="Arrow2Lend"
       orient="auto"
       refY="0"
       refX="0"
       id="Arrow2Lend-4"
       style="overflow:visible">
      <path
         id="path907-8"
         style="fill:#000000;fill-opacity:1;fill-rule:evenodd;stroke:#000000;stroke-width:0.625;stroke-linejoin:round;stroke-opacity:1"
         d="M 8.7185878,4.0337352 -2.2072895,0.01601326 8.7185884,-4.0017078 c -1.7454984,2.3720609 -1.7354408,5.6174519 -6e-7,8.035443 z"
         transform="matrix(-1.1,0,0,-1.1,-1.1,0)" />
    </marker>
    <marker
       inkscape:isstock="true"
       inkscape:stockid="Arrow2Lend"
       orient="auto"
       refY="0"
       refX="0"
       id="Arrow2Lend-7"
       style="overflow:visible">
      <path
         id="path907-0"
         style="fill:#000000;fill-opacity:1;fill-rule:evenodd;stroke:#000000;stroke-width:0.625;stroke-linejoin:round;stroke-opacity:1"
         d="M 8.7185878,4.0337352 -2.2072895,0.01601326 8.7185884,-4.0017078 c -1.7454984,2.3720609 -1.7354408,5.6174519 -6e-7,8.035443 z"
         transform="matrix(-1.1,0,0,-1.1,-1.1,0)" />
    </marker>
    <marker
       inkscape:isstock="true"
       inkscape:stockid="Arrow2Lend"
       orient="auto"
       refY="0"
       refX="0"
       id="Arrow2Lend-7-5"
       style="overflow:visible">
      <path
         id="path907-0-4"
         style="fill:#000000;fill-opacity:1;fill-rule:evenodd;stroke:#000000;stroke-width:0.625;stroke-linejoin:round;stroke-opacity:1"
         d="M 8.7185878,4.0337352 -2.2072895,0.01601326 8.7185884,-4.0017078 c -1.7454984,2.3720609 -1.7354408,5.6174519 -6e-7,8.035443 z"
         transform="matrix(-1.1,0,0,-1.1,-1.1,0)" />
    </marker>
    <marker
       inkscape:isstock="true"
       inkscape:stockid="Arrow2Lend"
       orient="auto"
       refY="0"
       refX="0"
       id="Arrow2Lend-5"
       style="overflow:visible">
      <path
         id="path907-9"
         style="fill:#000000;fill-opacity:1;fill-rule:evenodd;stroke:#000000;stroke-width:0.625;stroke-linejoin:round;stroke-opacity:1"
         d="M 8.7185878,4.0337352 -2.2072895,0.01601326 8.7185884,-4.0017078 c -1.7454984,2.3720609 -1.7354408,5.6174519 -6e-7,8.035443 z"
         transform="matrix(-1.1,0,0,-1.1,-1.1,0)" />
    </marker>
    <rect
       id="rect1580-5"
       height="57.462948"
       width="84.724442"
       y="82.853554"
       x="-16.036173" />
    <rect
       id="rect1593"
       height="23.252449"
       width="26.994223"
       y="82.853554"
       x="-16.036173" />
    <rect
       id="rect1580-5-3"
       height="57.462948"
       width="84.724442"
       y="82.853554"
       x="-16.036173" />
    <rect
       id="rect1622"
       height="57.462948"
       width="84.724442"
       y="82.853554"
       x="-16.036173" />
    <rect
       id="rect1580-5-3-0"
       height="57.462948"
       width="84.724442"
       y="82.853554"
       x="-16.036173" />
    <rect
       id="rect1652"
       height="57.462948"
       width="84.724442"
       y="82.853554"
       x="-16.036173" />
    <marker
       inkscape:isstock="true"
       inkscape:stockid="Arrow2Lend"
       orient="auto"
       refY="0"
       refX="0"
       id="Arrow2Lend-5-4"
       style="overflow:visible">
      <path
         id="path907-9-5"
         style="fill:#000000;fill-opacity:1;fill-rule:evenodd;stroke:#000000;stroke-width:0.625;stroke-linejoin:round;stroke-opacity:1"
         d="M 8.7185878,4.0337352 -2.2072895,0.01601326 8.7185884,-4.0017078 c -1.7454984,2.3720609 -1.7354408,5.6174519 -6e-7,8.035443 z"
         transform="matrix(-1.1,0,0,-1.1,-1.1,0)" />
    </marker>
    <rect
       id="rect1580-5-9"
       height="57.462948"
       width="84.724442"
       y="82.853554"
       x="-16.036173" />
    <rect
       id="rect1037"
       height="57.462948"
       width="84.724442"
       y="82.853554"
       x="-16.036173" />
    <rect
       id="rect1580-5-7"
       height="57.462948"
       width="84.724442"
       y="82.853554"
       x="-16.036173" />
    <rect
       id="rect1100"
       height="57.462948"
       width="84.724442"
       y="82.853554"
       x="-16.036173" />
    <rect
       id="rect1580-5-9-7"
       height="57.462948"
       width="84.724442"
       y="82.853554"
       x="-16.036173" />
    <rect
       id="rect1103"
       height="57.462948"
       width="84.724442"
       y="82.853554"
       x="-16.036173" />
    <rect
       id="rect1580-5-9-7-8"
       height="57.462948"
       width="84.724442"
       y="82.853554"
       x="-16.036173" />
    <rect
       id="rect1179"
       height="57.462948"
       width="84.724442"
       y="82.853554"
       x="-16.036173" />
    <rect
       id="rect1580-5-7-4"
       height="57.462948"
       width="84.724442"
       y="82.853554"
       x="-16.036173" />
    <rect
       id="rect1182"
       height="57.462948"
       width="84.724442"
       y="82.853554"
       x="-16.036173" />
    <marker
       inkscape:isstock="true"
       inkscape:stockid="Arrow2Lend"
       orient="auto"
       refY="0"
       refX="0"
       id="Arrow2Lend-5-4-7"
       style="overflow:visible">
      <path
         id="path907-9-5-2"
         style="fill:#000000;fill-opacity:1;fill-rule:evenodd;stroke:#000000;stroke-width:0.625;stroke-linejoin:round;stroke-opacity:1"
         d="M 8.7185878,4.0337352 -2.2072895,0.01601326 8.7185884,-4.0017078 c -1.7454984,2.3720609 -1.7354408,5.6174519 -6e-7,8.035443 z"
         transform="matrix(-1.1,0,0,-1.1,-1.1,0)" />
    </marker>
    <marker
       inkscape:isstock="true"
       inkscape:stockid="Arrow2Lend"
       orient="auto"
       refY="0"
       refX="0"
       id="Arrow2Lend-5-4-7-5"
       style="overflow:visible">
      <path
         id="path907-9-5-2-2"
         style="fill:#000000;fill-opacity:1;fill-rule:evenodd;stroke:#000000;stroke-width:0.625;stroke-linejoin:round;stroke-opacity:1"
         d="M 8.7185878,4.0337352 -2.2072895,0.01601326 8.7185884,-4.0017078 c -1.7454984,2.3720609 -1.7354408,5.6174519 -6e-7,8.035443 z"
         transform="matrix(-1.1,0,0,-1.1,-1.1,0)" />
    </marker>
    <marker
       inkscape:isstock="true"
       inkscape:stockid="Arrow2Lend"
       orient="auto"
       refY="0"
       refX="0"
       id="Arrow2Lend-5-4-7-1"
       style="overflow:visible">
      <path
         id="path907-9-5-2-0"
         style="fill:#000000;fill-opacity:1;fill-rule:evenodd;stroke:#000000;stroke-width:0.625;stroke-linejoin:round;stroke-opacity:1"
         d="M 8.7185878,4.0337352 -2.2072895,0.01601326 8.7185884,-4.0017078 c -1.7454984,2.3720609 -1.7354408,5.6174519 -6e-7,8.035443 z"
         transform="matrix(-1.1,0,0,-1.1,-1.1,0)" />
    </marker>
    <marker
       inkscape:isstock="true"
       inkscape:stockid="Arrow2Lend"
       orient="auto"
       refY="0"
       refX="0"
       id="Arrow2Lend-5-4-7-1-7"
       style="overflow:visible">
      <path
         id="path907-9-5-2-0-0"
         style="fill:#000000;fill-opacity:1;fill-rule:evenodd;stroke:#000000;stroke-width:0.625;stroke-linejoin:round;stroke-opacity:1"
         d="M 8.7185878,4.0337352 -2.2072895,0.01601326 8.7185884,-4.0017078 c -1.7454984,2.3720609 -1.7354408,5.6174519 -6e-7,8.035443 z"
         transform="matrix(-1.1,0,0,-1.1,-1.1,0)" />
    </marker>
    <marker
       inkscape:isstock="true"
       inkscape:stockid="Arrow2Lend"
       orient="auto"
       refY="0"
       refX="0"
       id="Arrow2Lend-5-4-7-1-76"
       style="overflow:visible">
      <path
         id="path907-9-5-2-0-3"
         style="fill:#000000;fill-opacity:1;fill-rule:evenodd;stroke:#000000;stroke-width:0.625;stroke-linejoin:round;stroke-opacity:1"
         d="M 8.7185878,4.0337352 -2.2072895,0.01601326 8.7185884,-4.0017078 c -1.7454984,2.3720609 -1.7354408,5.6174519 -6e-7,8.035443 z"
         transform="matrix(-1.1,0,0,-1.1,-1.1,0)" />
    </marker>
    <marker
       inkscape:isstock="true"
       inkscape:stockid="Arrow2Lend"
       orient="auto"
       refY="0"
       refX="0"
       id="Arrow2Lend-5-4-7-1-2"
       style="overflow:visible">
      <path
         id="path907-9-5-2-0-9"
         style="fill:#000000;fill-opacity:1;fill-rule:evenodd;stroke:#000000;stroke-width:0.625;stroke-linejoin:round;stroke-opacity:1"
         d="M 8.7185878,4.0337352 -2.2072895,0.01601326 8.7185884,-4.0017078 c -1.7454984,2.3720609 -1.7354408,5.6174519 -6e-7,8.035443 z"
         transform="matrix(-1.1,0,0,-1.1,-1.1,0)" />
    </marker>
    <marker
       inkscape:isstock="true"
       inkscape:stockid="Arrow2Lend"
       orient="auto"
       refY="0"
       refX="0"
       id="Arrow2Lend-5-4-7-1-76-4"
       style="overflow:visible">
      <path
         id="path907-9-5-2-0-3-2"
         style="fill:#000000;fill-opacity:1;fill-rule:evenodd;stroke:#000000;stroke-width:0.625;stroke-linejoin:round;stroke-opacity:1"
         d="M 8.7185878,4.0337352 -2.2072895,0.01601326 8.7185884,-4.0017078 c -1.7454984,2.3720609 -1.7354408,5.6174519 -6e-7,8.035443 z"
         transform="matrix(-1.1,0,0,-1.1,-1.1,0)" />
    </marker>
    <marker
       inkscape:isstock="true"
       inkscape:stockid="Arrow2Lend"
       orient="auto"
       refY="0"
       refX="0"
       id="Arrow2Lend-5-4-7-1-8"
       style="overflow:visible">
      <path
         id="path907-9-5-2-0-6"
         style="fill:#000000;fill-opacity:1;fill-rule:evenodd;stroke:#000000;stroke-width:0.625;stroke-linejoin:round;stroke-opacity:1"
         d="M 8.7185878,4.0337352 -2.2072895,0.01601326 8.7185884,-4.0017078 c -1.7454984,2.3720609 -1.7354408,5.6174519 -6e-7,8.035443 z"
         transform="matrix(-1.1,0,0,-1.1,-1.1,0)" />
    </marker>
    <marker
       inkscape:isstock="true"
       inkscape:stockid="Arrow2Lend"
       orient="auto"
       refY="0"
       refX="0"
       id="Arrow2Lend-5-4-7-1-8-9"
       style="overflow:visible">
      <path
         id="path907-9-5-2-0-6-9"
         style="fill:#000000;fill-opacity:1;fill-rule:evenodd;stroke:#000000;stroke-width:0.625;stroke-linejoin:round;stroke-opacity:1"
         d="M 8.7185878,4.0337352 -2.2072895,0.01601326 8.7185884,-4.0017078 c -1.7454984,2.3720609 -1.7354408,5.6174519 -6e-7,8.035443 z"
         transform="matrix(-1.1,0,0,-1.1,-1.1,0)" />
    </marker>
    <rect
       id="rect1580-5-2"
       height="57.462948"
       width="84.724442"
       y="82.853554"
       x="-16.036173" />
    <rect
       id="rect1054"
       height="57.462948"
       width="84.724442"
       y="82.853554"
       x="-16.036173" />
    <rect
       id="rect1580-5-2-6"
       height="57.462948"
       width="84.724442"
       y="82.853554"
       x="-16.036173" />
    <rect
       id="rect1741"
       height="57.462948"
       width="84.724442"
       y="82.853554"
       x="-16.036173" />
    <marker
       inkscape:isstock="true"
       inkscape:stockid="Arrow2Lend"
       orient="auto"
       refY="0"
       refX="0"
       id="Arrow2Lend-5-4-7-54"
       style="overflow:visible">
      <path
         id="path907-9-5-2-7"
         style="fill:#000000;fill-opacity:1;fill-rule:evenodd;stroke:#000000;stroke-width:0.625;stroke-linejoin:round;stroke-opacity:1"
         d="M 8.7185878,4.0337352 -2.2072895,0.01601326 8.7185884,-4.0017078 c -1.7454984,2.3720609 -1.7354408,5.6174519 -6e-7,8.035443 z"
         transform="matrix(-1.1,0,0,-1.1,-1.1,0)" />
    </marker>
    <marker
       inkscape:isstock="true"
       inkscape:stockid="Arrow2Lend"
       orient="auto"
       refY="0"
       refX="0"
       id="Arrow2Lend-5-4-7-2"
       style="overflow:visible">
      <path
         id="path907-9-5-2-8"
         style="fill:#000000;fill-opacity:1;fill-rule:evenodd;stroke:#000000;stroke-width:0.625;stroke-linejoin:round;stroke-opacity:1"
         d="M 8.7185878,4.0337352 -2.2072895,0.01601326 8.7185884,-4.0017078 c -1.7454984,2.3720609 -1.7354408,5.6174519 -6e-7,8.035443 z"
         transform="matrix(-1.1,0,0,-1.1,-1.1,0)" />
    </marker>
    <rect
       id="rect1580-4"
       height="72.389351"
       width="108.2591"
       y="82.853554"
       x="-16.036173" />
    <rect
       id="rect2201"
       height="72.389351"
       width="108.2591"
       y="82.853554"
       x="-16.036173" />
    <marker
       inkscape:isstock="true"
       inkscape:stockid="Arrow2Lend"
       orient="auto"
       refY="0"
       refX="0"
       id="Arrow2Lend-5-4-7-54-1"
       style="overflow:visible">
      <path
         id="path907-9-5-2-7-3"
         style="fill:#000000;fill-opacity:1;fill-rule:evenodd;stroke:#000000;stroke-width:0.625;stroke-linejoin:round;stroke-opacity:1"
         d="M 8.7185878,4.0337352 -2.2072895,0.01601326 8.7185884,-4.0017078 c -1.7454984,2.3720609 -1.7354408,5.6174519 -6e-7,8.035443 z"
         transform="matrix(-1.1,0,0,-1.1,-1.1,0)" />
    </marker>
    <marker
       inkscape:isstock="true"
       inkscape:stockid="Arrow2Lend"
       orient="auto"
       refY="0"
       refX="0"
       id="Arrow2Lend-5-4-7-54-4"
       style="overflow:visible">
      <path
         id="path907-9-5-2-7-9"
         style="fill:#000000;fill-opacity:1;fill-rule:evenodd;stroke:#000000;stroke-width:0.625;stroke-linejoin:round;stroke-opacity:1"
         d="M 8.7185878,4.0337352 -2.2072895,0.01601326 8.7185884,-4.0017078 c -1.7454984,2.3720609 -1.7354408,5.6174519 -6e-7,8.035443 z"
         transform="matrix(-1.1,0,0,-1.1,-1.1,0)" />
    </marker>
    <marker
       inkscape:isstock="true"
       inkscape:stockid="Arrow2Lend"
       orient="auto"
       refY="0"
       refX="0"
       id="Arrow2Lend-5-4-7-5-2"
       style="overflow:visible">
      <path
         id="path907-9-5-2-2-6"
         style="fill:#000000;fill-opacity:1;fill-rule:evenodd;stroke:#000000;stroke-width:0.625;stroke-linejoin:round;stroke-opacity:1"
         d="M 8.7185878,4.0337352 -2.2072895,0.01601326 8.7185884,-4.0017078 c -1.7454984,2.3720609 -1.7354408,5.6174519 -6e-7,8.035443 z"
         transform="matrix(-1.1,0,0,-1.1,-1.1,0)" />
    </marker>
    <marker
       inkscape:isstock="true"
       inkscape:stockid="Arrow2Lend"
       orient="auto"
       refY="0"
       refX="0"
       id="Arrow2Lend-5-4-7-5-8"
       style="overflow:visible">
      <path
         id="path907-9-5-2-2-7"
         style="fill:#000000;fill-opacity:1;fill-rule:evenodd;stroke:#000000;stroke-width:0.625;stroke-linejoin:round;stroke-opacity:1"
         d="M 8.7185878,4.0337352 -2.2072895,0.01601326 8.7185884,-4.0017078 c -1.7454984,2.3720609 -1.7354408,5.6174519 -6e-7,8.035443 z"
         transform="matrix(-1.1,0,0,-1.1,-1.1,0)" />
    </marker>
    <marker
       inkscape:isstock="true"
       inkscape:stockid="Arrow2Lend"
       orient="auto"
       refY="0"
       refX="0"
       id="Arrow2Lend-5-4-7-5-8-5"
       style="overflow:visible">
      <path
         id="path907-9-5-2-2-7-7"
         style="fill:#000000;fill-opacity:1;fill-rule:evenodd;stroke:#000000;stroke-width:0.625;stroke-linejoin:round;stroke-opacity:1"
         d="M 8.7185878,4.0337352 -2.2072895,0.01601326 8.7185884,-4.0017078 c -1.7454984,2.3720609 -1.7354408,5.6174519 -6e-7,8.035443 z"
         transform="matrix(-1.1,0,0,-1.1,-1.1,0)" />
    </marker>
  </defs>
  <sodipodi:namedview
     inkscape:window-maximized="1"
     inkscape:window-y="-8"
     inkscape:window-x="1912"
     inkscape:window-height="1017"
     inkscape:window-width="1920"
     showgrid="false"
     inkscape:document-rotation="0"
     inkscape:current-layer="layer1"
     inkscape:document-units="mm"
     inkscape:cy="230.68629"
     inkscape:cx="507.07552"
     inkscape:zoom="1.4"
     inkscape:pageshadow="2"
     inkscape:pageopacity="0.0"
     borderopacity="1.0"
     bordercolor="#666666"
     pagecolor="#ffffff"
     id="base" />
  <metadata
     id="metadata5">
    <rdf:RDF>
      <cc:Work
         rdf:about="">
        <dc:format>image/svg+xml</dc:format>
        <dc:type
           rdf:resource="http://purl.org/dc/dcmitype/StillImage" />
        <dc:title />
      </cc:Work>
    </rdf:RDF>
  </metadata>
  <g
     transform="translate(21.807308,-39.800564)"
     id="layer1"
     inkscape:groupmode="layer"
     inkscape:label="Lag 1">
    <rect
       style="fill:#7f88b2;fill-opacity:1;stroke:#000000;stroke-width:0.36;stroke-linecap:round;stroke-linejoin:round;stroke-miterlimit:4;stroke-dasharray:1.44, 1.44;stroke-dashoffset:0;stroke-opacity:1"
       id="rect1043"
       width="87.853394"
       height="35.05394"
       x="83.82238"
       y="50.69693" />
    <rect
       style="fill:#4c8054;fill-opacity:1;stroke:#000000;stroke-width:0.36;stroke-linecap:round;stroke-linejoin:round;stroke-miterlimit:4;stroke-dasharray:1.44, 1.44;stroke-dashoffset:0;stroke-opacity:1"
       id="rect1043-1"
       width="87.853394"
       height="35.05394"
       x="83.822388"
       y="100.56755" />
    <path
       sodipodi:open="true"
       d="M 18.201176,93.833412 A 19.821568,19.821268 0 0 1 -1.5111368,113.65438 19.821568,19.821268 0 0 1 -21.440754,94.051915 19.821568,19.821268 0 0 1 -1.9481414,74.014854 19.821568,19.821268 0 0 1 18.196359,93.396434"
       sodipodi:arc-type="arc"
       sodipodi:end="6.2611376"
       sodipodi:start="0"
       sodipodi:ry="19.821268"
       sodipodi:rx="19.821568"
       sodipodi:cy="93.833412"
       sodipodi:cx="-1.6203912"
       sodipodi:type="arc"
       id="path837"
       style="fill:#ffffac;fill-opacity:1;stroke:#000000;stroke-width:0.36;stroke-linecap:round;stroke-linejoin:round;stroke-miterlimit:4;stroke-dasharray:0.72, 1.44;stroke-dashoffset:3.6;stroke-opacity:1" />
    <path
       inkscape:transform-center-y="-5.6126601"
       inkscape:transform-center-x="24.588797"
       sodipodi:open="true"
       d="M 67.474796,64.60144 A 19.821568,19.821268 0 0 1 47.762483,84.422407 19.821568,19.821268 0 0 1 27.832866,64.819943 19.821568,19.821268 0 0 1 47.325479,44.782882 a 19.821568,19.821268 0 0 1 20.1445,19.38158"
       sodipodi:arc-type="arc"
       sodipodi:end="6.2611376"
       sodipodi:start="0"
       sodipodi:ry="19.821268"
       sodipodi:rx="19.821568"
       sodipodi:cy="64.60144"
       sodipodi:cx="47.653229"
       sodipodi:type="arc"
       id="path837-1-9"
       style="fill:#9e9e9e;fill-opacity:1;stroke:#000000;stroke-width:0.36;stroke-linecap:round;stroke-linejoin:round;stroke-miterlimit:4;stroke-dasharray:0.72, 1.44;stroke-dashoffset:3.6;stroke-opacity:1" />
    <path
       inkscape:transform-center-y="-5.6126601"
       inkscape:transform-center-x="24.588797"
       sodipodi:open="true"
       d="m 67.474796,120.45316 a 19.821568,19.821268 0 0 1 -19.712313,19.82097 19.821568,19.821268 0 0 1 -19.929617,-19.60246 19.821568,19.821268 0 0 1 19.492613,-20.03707 19.821568,19.821268 0 0 1 20.1445,19.38159"
       sodipodi:arc-type="arc"
       sodipodi:end="6.2611376"
       sodipodi:start="0"
       sodipodi:ry="19.821268"
       sodipodi:rx="19.821568"
       sodipodi:cy="120.45316"
       sodipodi:cx="47.653229"
       sodipodi:type="arc"
       id="path837-1-9-3"
       style="fill:#9e9e9e;fill-opacity:1;stroke:#000000;stroke-width:0.36;stroke-linecap:round;stroke-linejoin:round;stroke-miterlimit:4;stroke-dasharray:0.72, 1.44;stroke-dashoffset:3.6;stroke-opacity:1" />
    <path
       sodipodi:nodetypes="cc"
       id="path884-9"
       d="m 14.816254,104.63886 13.218276,8.1691"
       style="fill:none;stroke:#000000;stroke-width:0.765;stroke-linecap:butt;stroke-linejoin:miter;stroke-miterlimit:4;stroke-dasharray:none;stroke-opacity:1;marker-end:url(#Arrow2Lend-5)" />
    <text
       transform="matrix(0.80338053,0,0,0.80338053,-32.81666,23.244048)"
       style="font-style:normal;font-weight:normal;font-size:10.5833px;line-height:1.25;font-family:sans-serif;white-space:pre;shape-inside:url(#rect1580);fill:#000000;fill-opacity:1;stroke:none;"
       id="text1578"
       xml:space="preserve"
       x="40.816502"
       y="0"><tspan
         x="16.207874"
         y="92.641001"><tspan
           style="font-style:italic;font-variant:normal;font-weight:bold;font-stretch:normal;font-family:'CMU Serif';-inkscape-font-specification:'CMU Serif Bold Italic';text-align:center;text-anchor:middle">Channel</tspan></tspan></text>
    <text
       transform="matrix(0.79854977,0,0,0.79854977,27.610202,-10.320054)"
       style="font-style:normal;font-weight:normal;font-size:10.5833px;line-height:1.25;font-family:sans-serif;white-space:pre;shape-inside:url(#rect1580-5);fill:#000000;fill-opacity:1;stroke:none;"
       id="text1578-5"
       xml:space="preserve"
       x="24.887291"
       y="0"><tspan
         x="3.0760424"
         y="92.641001"><tspan
           style="font-style:normal;font-variant:normal;font-weight:normal;font-stretch:normal;font-family:'CMU Serif';-inkscape-font-specification:'CMU Serif';text-align:center;text-anchor:middle">Access to 
</tspan></tspan><tspan
         x="18.372218"
         y="106.00215"><tspan
           style="font-style:normal;font-variant:normal;font-weight:normal;font-stretch:normal;font-family:'CMU Serif';-inkscape-font-specification:'CMU Serif';text-align:center;text-anchor:middle">fish</tspan></tspan></text>
    <rect
       y="39.800564"
       x="-21.807308"
       height="102.80952"
       width="185.20833"
       id="rect948"
       style="fill:#000000;fill-opacity:0;stroke-width:1" />
    <path
       sodipodi:nodetypes="cc"
       id="path884-9-0"
       d="m 15.189008,82.819984 13.218276,-8.1691"
       style="fill:none;stroke:#000000;stroke-width:0.765;stroke-linecap:butt;stroke-linejoin:miter;stroke-miterlimit:4;stroke-dasharray:none;stroke-opacity:1;marker-end:url(#Arrow2Lend-5-4)" />
    <text
       transform="matrix(0.79854978,0,0,0.79854978,27.231312,43.293262)"
       style="font-style:normal;font-weight:normal;font-size:10.5833px;line-height:1.25;font-family:sans-serif;white-space:pre;shape-inside:url(#rect1580-5-9);fill:#000000;fill-opacity:1;stroke:none;"
       id="text1578-5-1"
       xml:space="preserve"
       x="24.887291"
       y="0"><tspan
         x="3.0760424"
         y="92.641001"><tspan
           style="font-style:normal;font-variant:normal;font-weight:normal;font-stretch:normal;font-family:'CMU Serif';-inkscape-font-specification:'CMU Serif';text-align:center;text-anchor:middle">Access to 
</tspan></tspan><tspan
         x="8.0834728"
         y="106.00215"><tspan
           style="font-style:normal;font-variant:normal;font-weight:normal;font-stretch:normal;font-family:'CMU Serif';-inkscape-font-specification:'CMU Serif';text-align:center;text-anchor:middle">markets</tspan></tspan></text>
    <path
       inkscape:transform-center-y="-5.6126601"
       inkscape:transform-center-x="24.588797"
       sodipodi:open="true"
       d="m 229.18096,94.268356 a 19.821568,19.821268 0 0 1 -19.71232,19.820964 19.821568,19.821268 0 0 1 -19.92961,-19.602461 19.821568,19.821268 0 0 1 19.49261,-20.037061 19.821568,19.821268 0 0 1 20.1445,19.38158"
       sodipodi:arc-type="arc"
       sodipodi:end="6.2611376"
       sodipodi:start="0"
       sodipodi:ry="19.821268"
       sodipodi:rx="19.821568"
       sodipodi:cy="94.268356"
       sodipodi:cx="209.35939"
       sodipodi:type="arc"
       id="path837-1-9-9"
       style="fill:#ba7b7b;fill-opacity:1;stroke:#000000;stroke-width:0.36;stroke-linecap:round;stroke-linejoin:round;stroke-miterlimit:4;stroke-dasharray:0.72, 1.44;stroke-dashoffset:3.6;stroke-opacity:1" />
    <path
       sodipodi:nodetypes="cc"
       id="path884-9-0-5"
       d="m 67.469979,64.164462 15.817862,4.706796"
       style="fill:none;stroke:#000000;stroke-width:0.465;stroke-linecap:butt;stroke-linejoin:miter;stroke-miterlimit:4;stroke-dasharray:none;stroke-opacity:1;marker-end:url(#Arrow2Lend-5-4-7)" />
    <path
       sodipodi:nodetypes="cc"
       id="path884-9-0-5-0"
       d="M 67.469979,121.31462 83.287841,68.871258"
       style="fill:none;stroke:#000000;stroke-width:0.465;stroke-linecap:butt;stroke-linejoin:miter;stroke-miterlimit:4;stroke-dasharray:none;stroke-opacity:1;marker-end:url(#Arrow2Lend-5-4-7-5)" />
    <text
       transform="matrix(1.2102496,-0.00721766,0.00721766,1.2102496,95.167371,-48.634392)"
       style="font-style:normal;font-weight:normal;font-size:10.5833px;line-height:1.25;font-family:sans-serif;white-space:pre;shape-inside:url(#rect1580-5-2);fill:#000000;fill-opacity:1;stroke:none;"
       id="text1578-5-13"
       xml:space="preserve"
       x="24.887291"
       y="0"><tspan
         x="-4.2077275"
         y="92.641001"><tspan
           style="font-style:normal;font-variant:normal;font-weight:normal;font-stretch:normal;font-family:'CMU Serif';-inkscape-font-specification:'CMU Serif';text-align:center;text-anchor:middle">Occupational </tspan></tspan><tspan
         x="5.4376479"
         y="106.00215"><tspan
           style="font-style:normal;font-variant:normal;font-weight:normal;font-stretch:normal;font-family:'CMU Serif';-inkscape-font-specification:'CMU Serif';text-align:center;text-anchor:middle">structure</tspan></tspan></text>
    <text
       transform="matrix(1.2102496,-0.00721766,0.00721766,1.2102496,95.969201,9.2543039)"
       style="font-style:normal;font-weight:normal;font-size:10.5833px;line-height:1.25;font-family:sans-serif;white-space:pre;shape-inside:url(#rect1580-5-2-6);fill:#000000;fill-opacity:1;stroke:none;"
       id="text1578-5-13-2"
       xml:space="preserve"
       x="24.887291"
       y="0"><tspan
         x="-2.9804161"
         y="92.641001"><tspan
           style="font-style:normal;font-variant:normal;font-weight:normal;font-stretch:normal;font-family:'CMU Serif';-inkscape-font-specification:'CMU Serif';text-align:center;text-anchor:middle">Demography</tspan></tspan></text>
    <path
       sodipodi:nodetypes="cc"
       id="path884-9-0-5-9"
       d="M 67.469979,64.164462 83.688753,117.53917"
       style="fill:none;stroke:#000000;stroke-width:0.465;stroke-linecap:butt;stroke-linejoin:miter;stroke-miterlimit:4;stroke-dasharray:none;stroke-opacity:1;marker-end:url(#Arrow2Lend-5-4-7-54)" />
    <path
       sodipodi:nodetypes="cc"
       id="path884-9-0-5-8"
       d="m 67.469979,121.31462 16.218774,-3.77545"
       style="fill:none;stroke:#000000;stroke-width:0.465;stroke-linecap:butt;stroke-linejoin:miter;stroke-miterlimit:4;stroke-dasharray:none;stroke-opacity:1;marker-end:url(#Arrow2Lend-5-4-7-2)" />
    <text
       transform="matrix(0.63301905,0,0,0.63301905,184.94092,37.616483)"
       style="font-style:normal;font-weight:normal;font-size:10.5833px;line-height:1.25;font-family:sans-serif;white-space:pre;shape-inside:url(#rect1580-4);fill:#000000;fill-opacity:1;stroke:none;"
       id="text1578-52"
       xml:space="preserve"
       x="40.816502"
       y="0"><tspan
         x="9.2212426"
         y="92.641001"><tspan
           style="font-style:italic;font-variant:normal;font-weight:bold;font-stretch:normal;font-family:'CMU Serif';-inkscape-font-specification:'CMU Serif Bold Italic';text-align:center;text-anchor:middle">Population</tspan></tspan></text>
    <path
       sodipodi:nodetypes="cc"
       id="path884-9-0-5-9-7"
       d="m 171.75164,69.289748 17.48634,25.063803"
       style="fill:none;stroke:#000000;stroke-width:0.465;stroke-linecap:butt;stroke-linejoin:miter;stroke-miterlimit:4;stroke-dasharray:none;stroke-opacity:1;marker-end:url(#Arrow2Lend-5-4-7-54-1)" />
    <path
       sodipodi:nodetypes="cc"
       id="path884-9-0-5-9-1"
       d="M 171.94063,118.99362 189.23798,94.353551"
       style="fill:none;stroke:#000000;stroke-width:0.465;stroke-linecap:butt;stroke-linejoin:miter;stroke-miterlimit:4;stroke-dasharray:none;stroke-opacity:1;marker-end:url(#Arrow2Lend-5-4-7-54-4)" />
    <path
       sodipodi:nodetypes="cc"
       id="path884-9-0-5-0-0"
       d="m 121.92895,100.57588 0.11578,-14.157007"
       style="fill:none;stroke:#000000;stroke-width:0.465;stroke-linecap:butt;stroke-linejoin:miter;stroke-miterlimit:4;stroke-dasharray:none;stroke-opacity:1;marker-end:url(#Arrow2Lend-5-4-7-5-8)" />
    <path
       sodipodi:nodetypes="cc"
       id="path884-9-0-5-0-0-1"
       d="m 136.98069,85.721197 0.0811,14.157256"
       style="fill:none;stroke:#000000;stroke-width:0.465;stroke-linecap:butt;stroke-linejoin:miter;stroke-miterlimit:4;stroke-dasharray:none;stroke-opacity:1;marker-end:url(#Arrow2Lend-5-4-7-5-8-5)" />
  </g>
</svg>
